<?xml version="1.0" encoding="UTF-8" standalone="no"?>
<!-- Generator: Adobe Illustrator 19.2.1, SVG Export Plug-In . SVG Version: 6.00 Build 0)  -->

<svg
   xmlns:dc="http://purl.org/dc/elements/1.1/"
   xmlns:cc="http://creativecommons.org/ns#"
   xmlns:rdf="http://www.w3.org/1999/02/22-rdf-syntax-ns#"
   xmlns:svg="http://www.w3.org/2000/svg"
   xmlns="http://www.w3.org/2000/svg"
   xmlns:sodipodi="http://sodipodi.sourceforge.net/DTD/sodipodi-0.dtd"
   xmlns:inkscape="http://www.inkscape.org/namespaces/inkscape"
   version="1.1"
   id="layer"
   x="0px"
   y="0px"
   viewBox="0 0 145.78623 107.38051"
   xml:space="preserve"
   sodipodi:docname="crest.svg"
   width="145.78622"
   height="107.38051"
   inkscape:version="0.92.4 (5da689c313, 2019-01-14)"><metadata
   id="metadata685"><rdf:RDF><cc:Work
       rdf:about=""><dc:format>image/svg+xml</dc:format><dc:type
         rdf:resource="http://purl.org/dc/dcmitype/StillImage" /><dc:title></dc:title></cc:Work></rdf:RDF></metadata><defs
   id="defs683" /><sodipodi:namedview
   pagecolor="#ffffff"
   bordercolor="#666666"
   borderopacity="1"
   objecttolerance="10"
   gridtolerance="10"
   guidetolerance="10"
   inkscape:pageopacity="0"
   inkscape:pageshadow="2"
   inkscape:window-width="1920"
   inkscape:window-height="1027"
   id="namedview681"
   showgrid="false"
   inkscape:zoom="8.190292"
   inkscape:cx="65.60208"
   inkscape:cy="44.83286"
   inkscape:window-x="-8"
   inkscape:window-y="-8"
   inkscape:window-maximized="1"
   inkscape:current-layer="g412" />
<style
   type="text/css"
   id="style2">
	.st0{fill:#231F20;}
	.st1{fill:none;stroke:#FFFFFF;stroke-width:0;stroke-linecap:round;stroke-linejoin:round;}
	.st2{fill:none;stroke:#231F20;stroke-width:0;stroke-linecap:round;stroke-linejoin:round;}
	.st3{clip-path:url(#SVGID_2_);}
	.st4{clip-path:url(#SVGID_6_);}
	.st5{clip-path:url(#SVGID_10_);}
	.st6{clip-path:url(#SVGID_14_);}
	.st7{clip-path:url(#SVGID_18_);}
	.st8{clip-path:url(#SVGID_22_);}
	.st9{clip-path:url(#SVGID_26_);}
	.st10{clip-path:url(#SVGID_30_);}
	.st11{clip-path:url(#SVGID_34_);}
	.st12{clip-path:url(#SVGID_38_);}
	.st13{clip-path:url(#SVGID_42_);}
	.st14{clip-path:url(#SVGID_46_);}
</style>
<g
   id="g678"
   transform="translate(-89.399495,-245)">
	<g
   id="g412">
		
		
		
		
		
		
		
		
		
		
		
		
		
		
		
		
		
		
		
		
		
		<path
   class="st0"
   d="m 138.1,331 -0.4,0.4 c 0.2,-0.1 0.3,-0.2 0.4,-0.4"
   id="path46"
   inkscape:connector-curvature="0"
   style="fill:#231f20" />
		<path
   class="st0"
   d="m 142.3,303.5 c 0,-0.4 -0.3,-0.7 -0.7,-0.7 -0.4,0 -0.7,0.3 -0.7,0.7 0,0.4 0.3,0.7 0.7,0.7 0.4,0 0.7,-0.3 0.7,-0.7"
   id="path48"
   inkscape:connector-curvature="0"
   style="fill:#231f20" />
		<path
   class="st0"
   d="m 149,273.9 v 0 0 20.9 c 0,2 0.9,3.8 2,4.3 l 9.9,5.9 c 0.2,0.3 0.5,0.4 0.9,0.4 0.3,0 0.6,-0.1 0.8,-0.3 l 10.1,-6 c 1.2,-0.5 2,-2.3 2,-4.3 v -20.9 0 0 H 149 m 4.2,2 h 0.4 l 0.2,-0.4 0.2,0.4 h 0.4 l -0.2,0.4 0.3,0.3 -0.4,0.1 v 0.5 l -0.4,-0.3 -0.4,0.3 v -0.5 l -0.4,-0.1 0.3,-0.3 z m -0.1,4.7 c 0.7,0 0.5,0.7 0.7,0.7 0.1,0 0,-0.7 0.5,-0.7 0.7,0 1.7,1.9 0.8,1.9 -0.4,0 -0.1,-0.3 -0.1,-0.3 0,-0.1 -0.2,-0.2 -0.3,-0.2 -0.2,0 -0.3,0.4 -0.5,0.4 -0.1,0 -0.3,0 -0.3,-0.2 0,-0.1 0.3,-0.2 0.4,-0.4 -1.7,0 -1.7,0.8 -2,0.8 -0.4,0 0.4,-0.8 0.6,-1 -0.3,-0.1 -0.5,-0.5 -0.9,-0.7 0.2,-0.2 0.3,-0.1 0.5,0 0.1,-0.1 0.2,-0.3 0.6,-0.3 m 0,6.4 0.3,-0.3 -0.2,-0.4 h 0.4 l 0.2,-0.4 0.2,0.4 h 0.4 l -0.2,0.4 0.3,0.3 -0.4,0.1 v 0.5 l -0.4,-0.3 -0.4,0.3 v -0.5 z m -3.4,-12.4 h 2.7 v 5.3 h -2.7 z m 0.3,7.2 0.3,-0.3 -0.2,-0.4 h 0.4 l 0.3,-0.4 0.2,0.4 h 0.4 l -0.2,0.4 0.3,0.3 -0.4,0.1 v 0.5 l -0.4,-0.3 -0.4,0.3 v -0.5 z m -0.3,1.6 h 2.7 v 5.1 h -2.7 z m 7.8,18.8 -6.2,-3.7 c -1,-0.7 -1.5,-1.9 -1.7,-3.4 v -5.9 h 7.9 z m 0,-13.7 h -2.2 v -5.1 h 2.2 z m -1.5,-7.4 h 0.4 l 0.2,-0.4 0.2,0.4 h 0.4 l -0.2,0.4 0.3,0.3 -0.4,0.1 v 0.5 l -0.4,-0.3 -0.4,0.3 v -0.5 l -0.4,-0.1 0.3,-0.3 z m 1.5,-1.1 h -2.2 v -5.3 h 2.2 z m 8,22.6 -2.9,1.7 h -0.1 c -0.2,0.2 -0.5,0.3 -0.7,0.3 -0.3,0 -0.6,-0.1 -0.8,-0.3 l -2.8,-1.7 v -13.4 h 7.3 z m 0,-14.1 h -7.3 v -13.8 h 7.3 z m 8.6,6.6 c -0.1,1.5 -0.6,2.7 -1.7,3.4 l -6.2,3.7 v -13 h 7.9 z m 0,-6.6 h -7.9 v -13.8 h 7.9 z"
   id="path50"
   inkscape:connector-curvature="0"
   style="fill:#231f20" />
		<path
   class="st0"
   d="m 150,292.7 c 0,0.1 0.1,0.2 0.2,0.3 -0.1,0.1 -0.1,0.2 -0.1,0.7 0,1.6 1,2.4 1.8,2.4 0.5,0 0.5,-0.4 0.5,-0.6 0,0.3 0.3,-0.1 0.3,0.3 0,0.5 -0.5,0.3 -0.5,0.7 0,0.6 0.8,0 0.8,0.6 0,0.8 -0.1,0.8 -0.1,1.1 0,0.2 0.9,-0.3 0.8,-0.4 0.2,0.1 0.2,0.7 0.6,0.7 0.3,0 0.3,-0.6 0.5,-0.7 -0.1,0 0.8,0.6 0.8,0.3 0,-0.8 -0.3,-0.4 -0.3,-1 0,-0.5 1.1,-0.4 0.9,-0.6 -0.1,-0.2 -0.2,-0.1 -0.3,-0.4 0,0.1 -0.8,-1.2 0.2,-0.6 1.1,0.7 1.2,-1.6 1.1,-1.7 0,-0.1 -0.5,0.1 -0.7,0.2 0.1,-0.3 0.5,-0.8 0.8,-1 0,-0.3 -0.5,0 -0.9,0.2 1.5,-2.1 0.5,-1.2 -0.3,-1.1 1.3,-1.4 1,-1.4 0,-0.9 0.8,-0.6 0.9,-1.3 0.8,-1.5 -0.7,0.9 -1.4,0.8 -1.4,1.7 0,0.6 -0.2,1.5 -0.5,1.9 -0.4,0.4 -0.1,-1.6 -1.1,-1.6 -0.3,0 -1.1,0 -1.3,0.4 0.2,0 0.5,0.5 0.5,0.7 0,0.2 0.2,0.8 -0.2,0.8 -0.3,0 -0.7,-0.7 -0.7,-1.1 0,-0.3 0,-0.3 0,-0.8 0,-0.8 -1.4,-2 -1.9,-2 0,0.6 0.8,0.7 0.8,1.5 -0.3,0 -0.8,-0.6 -0.8,-0.2 0,0.4 0.5,0.4 0.5,0.8 0,0.3 -0.6,-0.1 -0.6,0.2 0,0.3 0.3,0.3 0.4,0.6 -0.4,0 -0.6,0 -0.6,0.1"
   id="path52"
   inkscape:connector-curvature="0"
   style="fill:#231f20" />
		<path
   class="st0"
   d="m 184.7,299.4 c 0.5,0 0.8,-0.3 0.8,-0.7 0,-0.4 -0.4,-0.7 -0.8,-0.7 -0.5,0 -0.8,0.3 -0.8,0.7 -0.1,0.4 0.3,0.7 0.8,0.7"
   id="path54"
   inkscape:connector-curvature="0"
   style="fill:#231f20" />
		<path
   class="st0"
   d="m 180.4,300.7 c 0,0.4 0.4,0.7 0.8,0.7 0.4,0 0.8,-0.3 0.8,-0.7 0,-0.4 -0.4,-0.7 -0.8,-0.7 -0.4,0 -0.8,0.3 -0.8,0.7"
   id="path56"
   inkscape:connector-curvature="0"
   style="fill:#231f20" />
		<path
   class="st0"
   d="m 140.4,304.7 c -0.5,0 -0.8,0.3 -0.8,0.7 0,0.4 0.4,0.7 0.8,0.7 0.5,0 0.8,-0.3 0.8,-0.7 0.1,-0.4 -0.3,-0.7 -0.8,-0.7"
   id="path58"
   inkscape:connector-curvature="0"
   style="fill:#231f20" />
		<path
   class="st0"
   d="m 143.1,306.4 c 0.5,0 0.8,-0.3 0.8,-0.7 0,-0.4 -0.4,-0.7 -0.8,-0.7 -0.5,0 -0.8,0.3 -0.8,0.7 -0.1,0.4 0.3,0.7 0.8,0.7"
   id="path60"
   inkscape:connector-curvature="0"
   style="fill:#231f20" />
		<path
   class="st0"
   d="m 217.2,276.4 c 0.9,-1.7 0.6,-4.1 -0.6,-5.6 -0.3,-0.3 -0.1,-1 -0.7,-1.1 -0.8,1.9 -0.1,4 0.8,5.7 0.1,0.3 0,1 0.5,1"
   id="path62"
   inkscape:connector-curvature="0"
   style="fill:#231f20" />
		<path
   class="st0"
   d="m 108.3,276.2 c 0.2,0 0.2,0.4 0.4,0.2 -0.3,-1 -0.3,-2.5 0,-3.6 -0.2,-0.9 -0.5,-1.7 -1.4,-2.2 -0.1,-0.1 -0.4,0 -0.4,0.1 0.5,1.8 -0.4,4.3 1.4,5.5"
   id="path64"
   inkscape:connector-curvature="0"
   style="fill:#231f20" />
		<path
   class="st0"
   d="m 219.8,274.2 c 0.4,-0.2 0.9,-0.7 0.6,-1.2 -0.3,-0.4 -0.7,-0.5 -1.2,-0.5 -0.4,0.2 -0.7,0.7 -0.5,1.2 0.3,0.3 0.7,0.6 1.1,0.5"
   id="path66"
   inkscape:connector-curvature="0"
   style="fill:#231f20" />
		<path
   class="st0"
   d="m 105.4,275.9 c 0.4,-0.2 0.5,-0.6 0.6,-1 -0.1,-0.4 -0.4,-0.5 -0.8,-0.6 -0.3,0 -0.7,0.1 -0.9,0.4 -0.1,0.3 -0.1,0.7 0.2,1 0.2,0.2 0.6,0.2 0.9,0.2"
   id="path68"
   inkscape:connector-curvature="0"
   style="fill:#231f20" />
		<path
   class="st0"
   d="m 221,276.9 c 0.4,0.2 0.9,0 1.2,-0.4 0.1,-0.3 0.1,-0.5 0,-0.7 -0.3,-0.2 -0.5,-0.5 -0.9,-0.5 -0.3,0.1 -0.7,0.5 -0.8,0.8 0.1,0.3 0.2,0.6 0.5,0.8"
   id="path70"
   inkscape:connector-curvature="0"
   style="fill:#231f20" />
		<path
   class="st0"
   d="m 218.7,277.1 c 0.4,0.1 0.7,-0.2 0.9,-0.5 0,-0.3 0.3,-0.7 0,-0.9 -0.3,-0.1 -0.5,-0.3 -0.9,-0.2 -0.4,0.1 -0.6,0.6 -0.6,1 0.1,0.4 0.4,0.4 0.6,0.6"
   id="path72"
   inkscape:connector-curvature="0"
   style="fill:#231f20" />
		<path
   class="st0"
   d="m 215.8,277.7 c 0.6,-0.1 0.5,-0.7 0.5,-1.2 -0.2,-0.3 -0.5,-0.5 -0.9,-0.5 -0.4,0.2 -0.7,0.6 -0.7,1.1 0.2,0.3 0.6,0.8 1.1,0.6"
   id="path74"
   inkscape:connector-curvature="0"
   style="fill:#231f20" />
		<path
   class="st0"
   d="m 110.3,277.6 c 0.3,-0.2 0.7,-0.5 0.6,-1 -0.2,-0.5 -0.9,-0.8 -1.3,-0.4 -0.1,0.3 -0.5,0.5 -0.2,0.9 0.2,0.3 0.6,0.6 0.9,0.5"
   id="path76"
   inkscape:connector-curvature="0"
   style="fill:#231f20" />
		<path
   class="st0"
   d="m 107.7,277.7 c 0.3,-0.1 0.5,-0.5 0.5,-0.9 -0.2,-0.3 -0.5,-0.8 -1,-0.6 -0.4,0.2 -0.6,0.6 -0.4,1 0.2,0.3 0.5,0.6 0.9,0.5"
   id="path78"
   inkscape:connector-curvature="0"
   style="fill:#231f20" />
		<path
   class="st0"
   d="m 205.8,282.8 c 0.6,-0.6 0.3,-1.7 0.5,-2.6 -0.1,-1.2 -0.5,-2.3 -0.9,-3.3 -0.1,-0.2 -0.1,-0.7 -0.5,-0.5 -0.3,1.5 -1,3.4 -0.2,5 0.5,0.4 0.5,1.2 1.1,1.4"
   id="path80"
   inkscape:connector-curvature="0"
   style="fill:#231f20" />
		<path
   class="st0"
   d="m 104.9,276.9 c -0.4,0.2 -0.6,0.6 -0.6,1.1 0.2,0.4 0.6,0.8 1.1,0.6 0.3,-0.3 0.7,-0.6 0.6,-1.1 -0.2,-0.4 -0.6,-0.6 -1.1,-0.6"
   id="path82"
   inkscape:connector-curvature="0"
   style="fill:#231f20" />
		<path
   class="st0"
   d="m 212.8,283.2 c 0.4,-1.5 0.4,-3 -0.2,-4.4 -0.4,-0.3 -0.7,-0.9 -0.7,-1.4 -0.1,-0.3 -0.3,-0.5 -0.6,-0.3 -0.4,0.8 -0.5,1.6 -0.5,2.6 0.3,1.3 1.2,2.5 1.8,3.7 l 0.2,-0.2"
   id="path84"
   inkscape:connector-curvature="0"
   style="fill:#231f20" />
		<path
   class="st0"
   d="m 217,277.5 c -0.4,0.2 -0.6,0.6 -0.5,1.1 0.1,0.5 0.6,0.6 1,0.5 0.5,-0.1 0.6,-0.6 0.7,-1.1 -0.2,-0.3 -0.7,-0.8 -1.2,-0.5"
   id="path86"
   inkscape:connector-curvature="0"
   style="fill:#231f20" />
		<path
   class="st0"
   d="m 107.5,280.3 c 0.4,-0.1 0.7,-0.5 0.7,-0.9 -0.1,-0.5 -0.5,-0.6 -0.9,-0.9 -0.3,0.1 -0.6,0.1 -0.7,0.4 -0.2,0.4 -0.1,0.7 0,1 0.3,0.2 0.6,0.7 0.9,0.4"
   id="path88"
   inkscape:connector-curvature="0"
   style="fill:#231f20" />
		<path
   class="st0"
   d="m 108.7,279.6 c 0.2,0.3 0.5,0.7 1,0.5 0.2,-0.2 0.7,-0.5 0.5,-0.9 -0.2,-0.4 -0.5,-0.8 -1,-0.6 -0.4,0.3 -0.6,0.5 -0.5,1"
   id="path90"
   inkscape:connector-curvature="0"
   style="fill:#231f20" />
		<path
   class="st0"
   d="m 218.5,280.8 c 0.1,-0.6 1,-1.2 1,-1.8 -1.4,0.4 -2.7,1.1 -3.6,2.4 -0.5,0.8 -1.3,1.6 -1.2,2.5 0.4,0 0.8,-0.4 1,-0.6 1.2,-0.3 2.3,-1.2 2.8,-2.5"
   id="path92"
   inkscape:connector-curvature="0"
   style="fill:#231f20" />
		<path
   class="st0"
   d="m 108.8,283.6 c 0.2,0 0.4,-0.3 0.3,-0.5 -0.8,-0.7 -1.2,-1.4 -1.8,-2.1 -0.6,-0.8 -1.4,-1 -2.2,-1.5 -0.3,0 -0.9,-0.4 -1,0.1 1.1,1.6 2.5,3.8 4.7,4"
   id="path94"
   inkscape:connector-curvature="0"
   style="fill:#231f20" />
		<path
   class="st0"
   d="m 215.8,286.9 c 0.5,0.3 1,-0.2 1.5,-0.4 1.8,-1 2.7,-2.9 2.8,-4.9 h -0.4 c -1.5,1.7 -3,3.3 -3.9,5.3"
   id="path96"
   inkscape:connector-curvature="0"
   style="fill:#231f20" />
		<path
   class="st0"
   d="m 210.7,284.3 c 0.5,-0.2 0.9,-0.6 0.8,-1.3 -0.2,-0.2 -0.4,-0.5 -0.6,-0.5 -0.2,0 -0.4,0 -0.5,0.1 -0.4,0.1 -0.7,0.5 -0.6,1 0.1,0.3 0.4,0.7 0.9,0.7"
   id="path98"
   inkscape:connector-curvature="0"
   style="fill:#231f20" />
		<path
   class="st0"
   d="m 107.3,285.5 c -0.8,-0.7 -1.6,-1.5 -2.4,-2.1 -0.9,-0.2 -1.8,-0.7 -2.7,-0.6 -0.3,0.1 -0.9,0 -0.9,0.5 1.6,0.5 2.6,1.8 4.1,2.3 0.6,-0.1 1.3,0.3 1.9,-0.1"
   id="path100"
   inkscape:connector-curvature="0"
   style="fill:#231f20" />
		<path
   class="st0"
   d="m 117.1,285.2 c 0.4,-0.2 0.7,-0.5 0.7,-1 -0.1,-0.4 -0.5,-0.5 -0.9,-0.5 -0.4,0.2 -0.8,0.5 -0.6,1 0.2,0.3 0.5,0.4 0.8,0.5"
   id="path102"
   inkscape:connector-curvature="0"
   style="fill:#231f20" />
		<path
   class="st0"
   d="m 114,285.3 c 0.3,0.4 0.8,0.1 1.1,-0.1 0.1,-0.3 0.1,-0.8 -0.2,-1 -0.4,-0.4 -0.9,-0.1 -1.2,0.2 -0.3,0.4 0,0.7 0.3,0.9"
   id="path104"
   inkscape:connector-curvature="0"
   style="fill:#231f20" />
		<path
   class="st1"
   d="m 177.6,284.7 c 0,0 0,0 0,0"
   id="path106"
   inkscape:connector-curvature="0"
   style="fill:none;stroke:#ffffff;stroke-width:0;stroke-linecap:round;stroke-linejoin:round" />
		<path
   class="st0"
   d="m 211,285 c -0.3,0.1 -0.6,0.3 -0.7,0.7 0,0.6 0.6,0.7 1,0.8 0.4,-0.2 0.8,-0.5 0.6,-1 -0.2,-0.3 -0.5,-0.7 -0.9,-0.5"
   id="path108"
   inkscape:connector-curvature="0"
   style="fill:#231f20" />
		<path
   class="st0"
   d="m 212.9,286 c 0.1,0.5 0.6,0.6 1.1,0.5 0.1,-0.2 0.3,-0.2 0.5,-0.4 0.4,-0.2 0,-0.6 -0.1,-0.8 -0.2,-0.2 -0.5,-0.4 -0.8,-0.3 -0.4,0.2 -0.8,0.5 -0.7,1"
   id="path110"
   inkscape:connector-curvature="0"
   style="fill:#231f20" />
		<path
   class="st0"
   d="m 102,285.9 c 0.1,0.2 0.2,0.5 0.4,0.6 0.6,0.2 1,0 1.2,-0.6 -0.1,-0.5 -0.5,-0.7 -1.1,-0.8 -0.4,0.1 -0.5,0.5 -0.5,0.8"
   id="path112"
   inkscape:connector-curvature="0"
   style="fill:#231f20" />
		<path
   class="st0"
   d="m 117,286.9 c 0.2,0.3 0.5,0.7 1,0.6 0.3,-0.2 0.7,-0.5 0.8,-0.9 -0.2,-0.5 -0.7,-0.9 -1.2,-0.7 -0.4,0.2 -0.6,0.6 -0.6,1"
   id="path114"
   inkscape:connector-curvature="0"
   style="fill:#231f20" />
		<path
   class="st0"
   d="m 114.6,286.6 c -0.1,0.5 0.2,0.6 0.5,0.9 0.4,0.3 0.9,-0.1 1.1,-0.4 0.1,-0.2 0,-0.6 -0.1,-0.7 -0.3,-0.2 -0.5,-0.4 -0.8,-0.3 -0.3,0 -0.5,0.3 -0.7,0.5"
   id="path116"
   inkscape:connector-curvature="0"
   style="fill:#231f20" />
		<path
   class="st0"
   d="m 220.3,286.2 c -0.3,0.1 -0.6,0.3 -0.9,0.6 0,0.2 -0.1,0.6 0.2,0.7 0.2,0.3 0.6,0.4 1,0.2 0.2,-0.1 0.6,-0.5 0.6,-0.9 -0.2,-0.2 -0.5,-0.5 -0.9,-0.6"
   id="path118"
   inkscape:connector-curvature="0"
   style="fill:#231f20" />
		<path
   class="st0"
   d="m 223.2,288.1 c 0.4,0 0.7,-0.4 0.9,-0.8 -0.1,-0.5 -0.7,-0.7 -1.1,-0.5 -0.2,0.1 -0.4,0.4 -0.4,0.7 -0.1,0.5 0.4,0.6 0.6,0.6"
   id="path120"
   inkscape:connector-curvature="0"
   style="fill:#231f20" />
		<path
   class="st0"
   d="m 107.9,287.4 c -0.3,0.2 -0.7,0.1 -0.8,0.5 -0.2,0.3 0,0.7 0.2,0.9 0.2,0.2 0.5,0.4 0.9,0.2 0.5,-0.2 0.6,-0.5 0.5,-1.1 -0.2,-0.3 -0.4,-0.5 -0.8,-0.5"
   id="path122"
   inkscape:connector-curvature="0"
   style="fill:#231f20" />
		<path
   class="st0"
   d="m 110.6,289.1 c 0.1,-0.3 0.5,-0.4 0.4,-0.8 -0.2,-0.5 -1.2,-0.9 -1.5,-0.2 -0.3,0.4 0,0.8 0.4,1.1 0.1,0.2 0.4,0 0.7,-0.1"
   id="path124"
   inkscape:connector-curvature="0"
   style="fill:#231f20" />
		<path
   class="st0"
   d="m 217.5,287.7 c -0.3,0.2 -0.5,0.5 -0.5,0.9 0.1,0.4 0.5,0.6 0.9,0.5 0.3,-0.3 0.7,-0.6 0.6,-1 -0.2,-0.4 -0.6,-0.4 -1,-0.4"
   id="path126"
   inkscape:connector-curvature="0"
   style="fill:#231f20" />
		<path
   class="st0"
   d="m 220.5,288.8 c -0.1,0.3 -0.1,0.7 0.2,1 0.3,0.2 0.7,0.3 1.1,0.2 0.5,-0.3 0.4,-0.7 0.5,-1.1 -0.3,-0.1 -0.4,-0.4 -0.7,-0.5 -0.5,-0.2 -0.9,0.1 -1.1,0.4"
   id="path128"
   inkscape:connector-curvature="0"
   style="fill:#231f20" />
		<path
   class="st0"
   d="m 105.6,289.5 c 0,0.2 -0.2,0.7 0.1,0.9 0.3,0.1 0.6,0.3 0.9,0.1 0.1,-0.2 0.5,-0.3 0.4,-0.6 -0.2,-0.7 -1,-1.2 -1.4,-0.4"
   id="path130"
   inkscape:connector-curvature="0"
   style="fill:#231f20" />
		<path
   class="st0"
   d="m 214,289.9 c 0.6,0.4 1.3,0.5 1.8,1 0.9,0.9 2.6,0.7 3.6,0.2 0,-0.1 0.1,-0.4 0,-0.4 -1.4,0 -2.5,-1.3 -3.8,-1.5 -0.6,0.1 -1.4,0.1 -1.6,0.7"
   id="path132"
   inkscape:connector-curvature="0"
   style="fill:#231f20" />
		<path
   class="st0"
   d="m 107.8,290 c -0.3,0.4 -0.1,0.9 0.3,1.1 0.2,0.1 0.6,0.2 0.8,-0.1 0.1,-0.3 0.4,-0.4 0.3,-0.8 -0.3,-0.5 -0.9,-0.7 -1.4,-0.2"
   id="path134"
   inkscape:connector-curvature="0"
   style="fill:#231f20" />
		<path
   class="st0"
   d="m 112.7,291.5 c 0.4,-0.2 0.6,-0.6 0.4,-1 -0.3,-0.5 -1.1,-0.9 -1.5,-0.2 -0.4,0.4 0,0.7 0.2,1 0.3,0.1 0.6,0.4 0.9,0.2"
   id="path136"
   inkscape:connector-curvature="0"
   style="fill:#231f20" />
		<path
   class="st0"
   d="m 159.4,298.9 c 0.6,1.6 2.5,0.8 3.8,0.9 0.7,-0.3 1.3,-0.8 1.7,-1.5 0,-0.7 0.3,-1.7 -0.2,-2.3 -0.5,-0.6 -0.7,-1.7 -0.9,-2.5 -0.2,-1.2 1.3,-0.2 1.4,-1.1 -0.4,-0.5 -1.1,-1.3 -1.8,-0.7 -0.4,0.3 -0.6,0.9 -0.5,1.5 0.2,1.2 0.7,2.2 0.9,3.3 -0.3,-0.1 -0.4,-0.4 -0.6,-0.6 -0.9,-1.2 -2.6,-0.8 -3.6,-1.9 -1.2,0.1 0.8,1.4 -0.6,1.6 0,0.3 0.3,0.5 0.3,0.8 -0.1,0.1 -0.3,0.1 -0.4,0.2 -0.2,0.9 0.3,1.6 0.5,2.3"
   id="path138"
   inkscape:connector-curvature="0"
   style="fill:#231f20" />
		<path
   class="st0"
   d="m 116.6,293.1 c 0.3,-0.2 0.6,-0.5 0.5,-1 -0.2,-0.3 -0.5,-0.5 -0.9,-0.5 -0.3,0.2 -0.6,0.5 -0.5,0.9 0.3,0.3 0.5,0.8 0.9,0.6"
   id="path140"
   inkscape:connector-curvature="0"
   style="fill:#231f20" />
		<path
   class="st0"
   d="m 144.1,292.8 c -0.5,1.8 -1.4,4.1 -0.2,5.8 0.5,0 0.4,-0.5 0.4,-0.9 0.9,-1.5 1.1,-3.3 0.5,-5.1 0,-0.5 -0.6,-0.3 -0.7,0.2"
   id="path142"
   inkscape:connector-curvature="0"
   style="fill:#231f20" />
		<path
   class="st0"
   d="m 183.5,297.7 c 0.6,-1.3 0.5,-2.9 -0.1,-4.2 -0.2,-0.4 -0.1,-1.2 -0.8,-1 0,0.9 -0.3,1.6 -0.5,2.4 0.1,1.1 0.5,2.2 1,3.2 l 0.4,-0.4"
   id="path144"
   inkscape:connector-curvature="0"
   style="fill:#231f20" />
		<path
   class="st0"
   d="m 115.1,295.8 c 1.3,0.2 2.9,0 4,-0.8 0.5,-0.4 1.3,-0.5 1.5,-1 -0.1,-0.2 -0.3,-0.1 -0.4,-0.3 -2.2,-0.5 -4,0.4 -5.1,2.1"
   id="path146"
   inkscape:connector-curvature="0"
   style="fill:#231f20" />
		<path
   class="st0"
   d="m 105.2,300 c -1,-1.6 -1.4,-3.3 -3.1,-4.4 -0.2,0 -0.4,0 -0.4,0.2 0,2 1,3.9 2.7,4.7 0.5,-0.1 0.9,0.5 1.2,0.2 0.2,-0.4 -0.3,-0.5 -0.4,-0.7"
   id="path148"
   inkscape:connector-curvature="0"
   style="fill:#231f20" />
		<path
   class="st0"
   d="m 181.3,298 c 0.4,-0.1 0.5,-0.6 0.4,-1 -0.2,-0.4 -0.9,-0.6 -1.2,-0.2 -0.1,0.2 -0.4,0.4 -0.2,0.7 0.1,0.4 0.5,0.7 1,0.5"
   id="path150"
   inkscape:connector-curvature="0"
   style="fill:#231f20" />
		<path
   class="st0"
   d="m 217.4,302.7 c 2.5,-0.7 4.1,-3 5.5,-5.1 -0.4,-0.2 -0.9,0 -1.2,0.2 -2.4,0.6 -3.2,3.1 -4.7,4.8 0,0.2 0.2,0.1 0.4,0.1"
   id="path152"
   inkscape:connector-curvature="0"
   style="fill:#231f20" />
		<path
   class="st0"
   d="m 99.4,300.5 c 0.4,0 0.2,-0.5 0.4,-0.6 -0.1,-0.5 -0.4,-0.6 -0.8,-0.8 -0.4,0.1 -0.8,0.5 -0.6,1 0.3,0.4 0.7,0.6 1,0.4"
   id="path154"
   inkscape:connector-curvature="0"
   style="fill:#231f20" />
		<path
   class="st0"
   d="m 107.1,299.7 c 1.4,1.4 3.3,2 5.2,1.3 0.2,-0.1 0.7,-0.1 0.5,-0.5 -1.5,-1.1 -3.7,-0.8 -5.5,-1.2 -0.2,0 -0.2,0.2 -0.2,0.4"
   id="path156"
   inkscape:connector-curvature="0"
   style="fill:#231f20" />
		<path
   class="st0"
   d="m 100.7,300.4 c 0.2,0.3 0.3,0.5 0.6,0.6 0.5,0.1 0.9,0 1.1,-0.4 0,-0.2 0,-0.5 -0.1,-0.7 -0.2,-0.2 -0.5,-0.3 -0.9,-0.4 -0.3,0.2 -0.6,0.5 -0.7,0.9"
   id="path158"
   inkscape:connector-curvature="0"
   style="fill:#231f20" />
		<path
   class="st0"
   d="m 143.4,299.8 c -0.3,0.1 -0.4,0.5 -0.3,0.9 0.2,0.3 0.5,0.5 0.9,0.4 0.3,-0.2 0.6,-0.5 0.5,-0.9 -0.1,-0.5 -0.7,-0.5 -1.1,-0.4"
   id="path160"
   inkscape:connector-curvature="0"
   style="fill:#231f20" />
		<path
   class="st0"
   d="m 222.9,300.4 c -0.1,0.3 0.2,0.5 0.2,0.7 0.3,0.1 0.6,0.3 0.9,0.1 0.3,-0.3 0.7,-0.5 0.6,-0.9 -0.2,-0.2 -0.4,-0.3 -0.6,-0.5 -0.5,0 -0.9,0.2 -1.1,0.6"
   id="path162"
   inkscape:connector-curvature="0"
   style="fill:#231f20" />
		<path
   class="st0"
   d="m 226.6,301.4 c 0.3,0.1 0.6,0 0.8,-0.3 0.2,-0.3 0.4,-0.6 0.2,-1 -0.4,0 -0.5,-0.5 -1,-0.3 -0.3,0.1 -0.7,0.4 -0.7,0.8 0,0.4 0.4,0.6 0.7,0.8"
   id="path164"
   inkscape:connector-curvature="0"
   style="fill:#231f20" />
		<path
   class="st0"
   d="m 97,302.4 c 0.3,0.1 0.5,-0.1 0.7,-0.2 0.1,-0.3 0.4,-0.5 0.3,-0.8 -0.1,-0.4 -0.5,-0.6 -0.9,-0.7 -0.5,0.1 -0.7,0.5 -0.8,0.9 0.1,0.4 0.3,0.7 0.7,0.8"
   id="path166"
   inkscape:connector-curvature="0"
   style="fill:#231f20" />
		<path
   class="st0"
   d="m 191.4,301.5 c -0.1,0.4 0.2,0.7 0.4,1 0.5,0.2 0.8,-0.1 1.1,-0.5 0,-0.2 0,-0.4 0,-0.6 -0.4,-0.5 -1.2,-0.4 -1.5,0.1"
   id="path168"
   inkscape:connector-curvature="0"
   style="fill:#231f20" />
		<path
   class="st0"
   d="m 104.2,301.3 c -0.4,0.2 -0.4,0.6 -0.4,1 0.2,0.2 0.4,0.5 0.8,0.5 0.4,0 0.5,-0.4 0.6,-0.7 0,-0.6 -0.5,-1 -1,-0.8"
   id="path170"
   inkscape:connector-curvature="0"
   style="fill:#231f20" />
		<path
   class="st0"
   d="m 99.3,302.6 c 0.2,0.4 0.7,0.8 1.2,0.6 0.3,-0.2 0.6,-0.5 0.5,-1 -0.2,-0.2 -0.5,-0.7 -0.9,-0.7 -0.5,0.2 -0.8,0.7 -0.8,1.1"
   id="path172"
   inkscape:connector-curvature="0"
   style="fill:#231f20" />
		<path
   class="st0"
   d="m 195.3,303.2 c 0.4,-0.2 0.6,-0.6 0.5,-1.1 -0.2,-0.3 -0.5,-0.5 -0.9,-0.5 -0.5,0.1 -0.6,0.6 -0.8,1 0.2,0.3 0.7,0.8 1.2,0.6"
   id="path174"
   inkscape:connector-curvature="0"
   style="fill:#231f20" />
		<path
   class="st0"
   d="m 102.8,303 c 0.1,-0.2 0.4,-0.4 0.2,-0.7 -0.1,-0.4 -0.4,-0.7 -0.9,-0.6 -0.3,0.2 -0.6,0.4 -0.6,0.9 0,0.3 0.4,0.4 0.6,0.6 0.3,0.1 0.5,-0.2 0.7,-0.2"
   id="path176"
   inkscape:connector-curvature="0"
   style="fill:#231f20" />
		<path
   class="st0"
   d="m 220.4,302.2 c -0.1,0.2 -0.2,0.6 0,0.8 0.3,0.1 0.5,0.5 0.9,0.4 0.4,-0.2 0.6,-0.4 0.8,-0.7 0,-0.9 -1.2,-1.3 -1.7,-0.5"
   id="path178"
   inkscape:connector-curvature="0"
   style="fill:#231f20" />
		<path
   class="st0"
   d="m 223.9,302.6 c -0.3,0.5 0.1,0.9 0.5,1 0.5,0 0.9,-0.3 1.1,-0.8 -0.1,-0.5 -0.5,-0.9 -1.1,-0.7 -0.2,0.1 -0.3,0.3 -0.5,0.5"
   id="path180"
   inkscape:connector-curvature="0"
   style="fill:#231f20" />
		<path
   class="st0"
   d="m 203.2,302.7 c -0.5,0.2 -0.7,0.7 -0.6,1.2 0.3,0.2 0.5,0.3 0.9,0.4 0.4,-0.3 0.9,-0.5 0.7,-1 -0.3,-0.4 -0.6,-0.6 -1,-0.6"
   id="path182"
   inkscape:connector-curvature="0"
   style="fill:#231f20" />
		<path
   class="st0"
   d="m 190.3,303.8 c -0.1,0.4 0.1,0.7 0.4,0.9 0.4,0.3 0.8,-0.2 1,-0.4 0,-0.1 0.1,-0.5 -0.1,-0.5 -0.1,-0.6 -1,-0.5 -1.3,0"
   id="path184"
   inkscape:connector-curvature="0"
   style="fill:#231f20" />
		<path
   class="st0"
   d="m 193.4,303.6 c -0.2,0 -0.4,0.2 -0.6,0.4 -0.1,0.2 0,0.5 0,0.7 0.3,0.1 0.7,0.5 1,0.1 0.3,-0.2 0.4,-0.4 0.4,-0.7 -0.1,-0.4 -0.4,-0.4 -0.8,-0.5"
   id="path186"
   inkscape:connector-curvature="0"
   style="fill:#231f20" />
		<path
   class="st0"
   d="m 117.7,304.9 c 0,-0.3 0.4,-0.6 0.1,-0.9 -0.3,-0.2 -0.5,-0.4 -0.9,-0.5 -0.4,0 -0.4,0.3 -0.6,0.4 -0.1,0.4 -0.1,1 0.3,1.1 0.4,0.4 0.9,0.2 1.1,-0.1"
   id="path188"
   inkscape:connector-curvature="0"
   style="fill:#231f20" />
		<path
   class="st0"
   d="m 208.3,305 c 0.3,-0.1 0.8,-0.3 0.7,-0.7 -0.3,-0.4 -0.7,-0.8 -1.4,-0.5 -0.1,0.2 -0.4,0.4 -0.4,0.7 0.3,0.3 0.5,0.7 1.1,0.5"
   id="path190"
   inkscape:connector-curvature="0"
   style="fill:#231f20" />
		<path
   class="st0"
   d="m 205.5,303.7 c -0.3,0.1 -0.5,0.4 -0.7,0.6 0,0.3 0,0.5 0.2,0.7 0.3,0.3 0.7,0.3 1,0.2 0.2,-0.2 0.7,-0.5 0.5,-0.9 -0.2,-0.4 -0.6,-0.6 -1,-0.6"
   id="path192"
   inkscape:connector-curvature="0"
   style="fill:#231f20" />
		<path
   class="st0"
   d="m 226.8,304.8 -0.1,-0.1 c -1.9,-0.1 -3.9,-1.6 -5.9,-0.4 -0.4,0.2 -1,0 -1.2,0.6 1.8,0.7 4.2,1.5 6.1,0.4 0.4,-0.2 1.2,0.1 1.1,-0.5"
   id="path194"
   inkscape:connector-curvature="0"
   style="fill:#231f20" />
		<path
   class="st0"
   d="m 97.5,305.6 c 2,0.6 4.1,0 5.8,-1 l 0.2,-0.3 -0.1,-0.1 c -2.2,-0.3 -4.4,0 -6,1.2 l 0.1,0.2"
   id="path196"
   inkscape:connector-curvature="0"
   style="fill:#231f20" />
		<path
   class="st0"
   d="m 213.5,304.6 c -0.2,-0.5 -0.7,-0.5 -1,-0.5 -0.4,0.1 -0.7,0.5 -0.6,0.9 0.1,0.5 0.7,0.6 1.2,0.5 0.3,-0.2 0.4,-0.6 0.4,-0.9"
   id="path198"
   inkscape:connector-curvature="0"
   style="fill:#231f20" />
		<path
   class="st0"
   d="m 111.1,305.7 c 0.5,-0.2 0.4,-0.5 0.5,-0.9 -0.3,-0.4 -0.7,-0.8 -1.2,-0.5 -0.2,0.2 -0.6,0.4 -0.4,0.9 0.1,0.2 0.6,0.7 1.1,0.5"
   id="path200"
   inkscape:connector-curvature="0"
   style="fill:#231f20" />
		<path
   class="st0"
   d="m 107.3,305.9 c 0.3,0.1 0.7,0.1 0.9,-0.1 0.1,-0.2 0.4,-0.4 0.2,-0.7 -0.1,-0.5 -0.5,-0.6 -0.9,-0.7 -0.3,0.1 -0.4,0.3 -0.7,0.5 -0.2,0.4 0.2,0.7 0.5,1"
   id="path202"
   inkscape:connector-curvature="0"
   style="fill:#231f20" />
		<path
   class="st0"
   d="m 216.7,306 c -0.1,-0.4 -0.4,-0.7 -0.8,-0.7 -0.2,0.1 -0.5,0.1 -0.6,0.2 -0.3,0.2 -0.3,0.6 -0.2,0.9 0.2,0.2 0.5,0.5 0.9,0.5 0.3,-0.1 0.6,-0.5 0.7,-0.9"
   id="path204"
   inkscape:connector-curvature="0"
   style="fill:#231f20" />
		<path
   class="st0"
   d="m 103.8,308.3 c 0.4,-0.7 0.9,-1.2 1,-2 0,-0.3 0.4,-0.4 0.2,-0.8 l -0.1,-0.1 c -1.8,0.8 -3.2,2.1 -4.6,3.8 l 0.2,0.4 c 1.3,-0.3 2.5,-0.3 3.3,-1.3"
   id="path206"
   inkscape:connector-curvature="0"
   style="fill:#231f20" />
		<path
   class="st0"
   d="m 213.8,307.4 c 0.3,-0.2 0.8,-0.3 0.7,-0.9 -0.1,-0.4 -0.5,-0.7 -1,-0.6 -0.3,0.2 -0.7,0.4 -0.6,0.9 0.1,0.4 0.5,0.6 0.9,0.6"
   id="path208"
   inkscape:connector-curvature="0"
   style="fill:#231f20" />
		<path
   class="st0"
   d="m 109.2,306.1 c -0.4,0.1 -0.6,0.6 -0.4,1 0.3,0.3 0.6,0.5 1,0.5 0.3,-0.2 0.6,-0.4 0.7,-0.9 -0.1,0 -0.2,-0.1 -0.1,-0.2 -0.3,-0.4 -0.8,-0.4 -1.2,-0.4"
   id="path210"
   inkscape:connector-curvature="0"
   style="fill:#231f20" />
		<path
   class="st0"
   d="m 224.3,308.8 c 0.4,-0.2 0.8,-0.5 0.6,-1 -0.2,-0.3 -0.6,-0.6 -1.1,-0.5 -0.5,0.1 -0.6,0.6 -1,0.7 -0.7,-0.8 -1.8,-1.9 -3.1,-1.8 -0.5,0.4 0.4,0.7 0.5,1.1 0.5,1.4 1.9,2.3 3.2,2.8 0.1,0.1 0.4,0.1 0.5,0 0,-0.4 -0.3,-0.7 -0.6,-0.9 0,-0.7 0.6,-0.2 1,-0.4"
   id="path212"
   inkscape:connector-curvature="0"
   style="fill:#231f20" />
		<path
   class="st0"
   d="m 227,307.3 c 0.2,-0.2 0.3,-0.6 0,-0.9 -0.3,-0.2 -0.6,-0.4 -1,-0.3 -0.3,0.1 -0.5,0.3 -0.7,0.6 -0.1,0.4 0.1,0.6 0.4,0.8 0.4,0.1 1.1,0.3 1.3,-0.2"
   id="path214"
   inkscape:connector-curvature="0"
   style="fill:#231f20" />
		<path
   class="st0"
   d="m 206.7,306.5 c 0,0.3 0.3,0.5 0.4,0.7 0.6,1.8 2.6,2.8 4.1,3.6 0.1,0 0.3,0 0.4,-0.1 -0.2,-0.5 -0.6,-1.3 -1,-1.8 -0.2,-0.5 -0.5,-0.7 -0.9,-1.2 -0.7,-0.6 -1.8,-1.4 -3,-1.2"
   id="path216"
   inkscape:connector-curvature="0"
   style="fill:#231f20" />
		<path
   class="st0"
   d="m 106.3,307.8 c 0.3,0.3 0.5,0.5 1,0.4 0.2,-0.2 0.6,-0.5 0.4,-0.9 -0.2,-0.2 -0.5,-0.6 -0.8,-0.5 -0.4,0 -0.9,0.5 -0.6,1"
   id="path218"
   inkscape:connector-curvature="0"
   style="fill:#231f20" />
		<path
   class="st0"
   d="m 214.8,307.9 c -0.3,0.2 0,0.6 0,0.8 0.3,0.3 0.7,0.2 1,0.1 0.1,-0.2 0.5,-0.4 0.5,-0.6 -0.3,-0.4 -1,-0.9 -1.5,-0.3"
   id="path220"
   inkscape:connector-curvature="0"
   style="fill:#231f20" />
		<path
   class="st0"
   d="m 226.9,310 c 0.4,-0.2 0.8,-0.6 0.6,-1.1 -0.2,-0.2 -0.4,-0.3 -0.5,-0.5 -0.5,-0.2 -0.9,0 -1.2,0.3 0,0.3 -0.2,0.6 0,0.9 0.3,0.2 0.7,0.6 1.1,0.4"
   id="path222"
   inkscape:connector-curvature="0"
   style="fill:#231f20" />
		<path
   class="st0"
   d="m 196.4,315.2 c -2.2,-0.6 -4.5,-0.1 -6.1,1.2 v 0.3 c 1.7,0 3.3,0 4.7,-0.7 0.4,-0.4 1.4,-0.3 1.4,-0.8"
   id="path224"
   inkscape:connector-curvature="0"
   style="fill:#231f20" />
		<path
   class="st0"
   d="m 130,317.9 c 0.4,-0.1 0.6,-0.4 0.7,-0.8 -0.1,-0.3 -0.5,-0.6 -0.9,-0.7 -0.3,0.2 -0.8,0.5 -0.6,1 0.1,0.3 0.5,0.5 0.8,0.5"
   id="path226"
   inkscape:connector-curvature="0"
   style="fill:#231f20" />
		<path
   class="st0"
   d="m 193.9,318.3 c 0.3,0.2 0.6,0.4 1,0.3 0.4,-0.2 0.6,-0.6 0.7,-1 -0.3,-0.8 -1.5,-0.8 -1.8,0 0.1,0.2 -0.1,0.5 0.1,0.7"
   id="path228"
   inkscape:connector-curvature="0"
   style="fill:#231f20" />
		<path
   class="st0"
   d="m 204.6,317.5 c -2.3,-0.2 -5,-0.2 -6.5,1.6 l 0.2,0.2 h 2.4 c 1.5,0 2.7,-0.9 3.9,-1.6 v -0.2"
   id="path230"
   inkscape:connector-curvature="0"
   style="fill:#231f20" />
		<path
   class="st0"
   d="m 117.1,318.3 c -0.4,0.2 -0.5,0.6 -0.4,1 0.2,0.3 0.5,0.5 0.9,0.4 0.4,-0.1 0.6,-0.5 0.6,-0.9 -0.1,-0.3 -0.6,-0.8 -1.1,-0.5"
   id="path232"
   inkscape:connector-curvature="0"
   style="fill:#231f20" />
		<path
   class="st0"
   d="m 119.8,318.7 c -0.1,0.2 -0.4,0.1 -0.5,0.4 -0.1,0.3 0,0.6 0.3,0.8 0.2,0.2 0.6,0.1 0.9,0 0.1,-0.2 0.3,-0.4 0.2,-0.6 -0.3,-0.3 -0.6,-0.4 -0.9,-0.6"
   id="path234"
   inkscape:connector-curvature="0"
   style="fill:#231f20" />
		<path
   class="st0"
   d="m 101.6,323.5 c 0.5,0.3 1.2,1 1.7,0.4 -1,-1.4 -1.4,-2.8 -2.9,-3.7 -0.3,-0.1 -0.7,-0.3 -0.9,-0.5 -0.3,0.1 -0.7,-0.5 -0.9,0 1.5,1.1 1.5,2.9 3,3.8"
   id="path236"
   inkscape:connector-curvature="0"
   style="fill:#231f20" />
		<path
   class="st0"
   d="m 218.1,327.4 v 0 0 c -0.5,-0.7 -1.6,-0.1 -2.2,-0.5 -3.1,-0.3 -6.1,-1.1 -8.9,-2.2 0,-0.1 0.2,-0.1 0.4,-0.1 0.4,-0.2 0.8,-0.6 0.7,-1.1 -0.2,-0.3 -0.6,-0.5 -1,-0.5 -0.3,0.1 -0.6,0.5 -0.7,0.8 0,0.4 0.4,0.8 0.7,0.9 -0.1,0.1 -0.3,0 -0.4,0 -1.4,-0.6 -2.7,-1.2 -4.1,-1.9 -0.5,-0.1 -0.9,-0.5 -1.4,-0.6 -1,-0.5 -2.1,-1 -3.1,-1.4 -2.9,-1.5 -6.1,-2.3 -9.1,-3.4 -0.7,-0.2 -1.3,-0.4 -1.9,-0.5 -1.1,-0.3 -2.3,-0.6 -3.4,-0.9 -3.8,-1 -9,-1 -12.3,1 -0.5,-0.2 -0.9,0.7 -1.1,0.1 0.9,-2.5 3.7,-3.3 6.2,-3.4 18.1,-0.2 35,-0.3 52.8,-0.6 2.1,0 4.1,-0.7 5.2,-2.6 0.8,-1.1 0.9,-2.9 0.3,-4.2 -0.7,-1.3 -1.9,-1.9 -3.4,-1.9 -1.2,0.1 -2,0.9 -2.5,1.9 -0.3,1 0.1,1.9 0.9,2.5 0.3,0.1 0.7,0.1 0.9,-0.2 0.2,-0.6 -0.4,-0.6 -0.5,-1 -0.2,-0.6 0,-1.2 0.5,-1.6 0.5,-0.5 1.2,-0.2 1.8,-0.2 0.5,0.4 1.1,0.7 1.4,1.3 0.3,0.8 0.3,1.6 0,2.4 -0.5,1.1 -1.6,2 -2.8,2.3 -3.7,0.5 -44.8,0.4 -44.8,0.4 -4.8,0.5 -10.3,-0.9 -14.5,1.6 -1.9,0.9 -2.8,3 -3.3,4.9 -1.2,1.1 -2.5,2.4 -3.5,3.6 l -0.1,-0.1 c 0.2,-1.1 0.7,-2 0.9,-3.1 0.7,-0.9 0.7,-2.1 1.2,-3.1 1.7,-2.8 3.3,-5.6 6,-7.5 1.1,-1.5 3.1,-1.2 4.8,-1.2 1.8,0.9 4,1.1 6.3,0.9 0.1,-0.1 0.1,-0.2 0.1,-0.3 -0.6,-0.6 -1.7,-0.8 -2.4,-1.4 -1.8,-0.9 -3.5,0.3 -5.4,0.1 -0.1,-0.1 -0.2,-0.1 -0.1,-0.3 1.7,-1.3 3.6,-2.2 5.6,-3 1.6,-0.9 3.2,-1.3 4.9,-2 0.7,0 1.3,-0.6 1.9,-0.2 -1.4,2.6 -2.6,5.4 -4.6,7.7 -0.7,0 -1.1,0.7 -1.8,0.8 -0.4,0.5 -1.1,0.1 -1.5,0.3 -1.4,0.6 -3.4,0.2 -4.3,1.5 0.1,0.1 0.2,0.2 0.4,0.2 2.7,0 5.8,0.2 8.7,0.1 0.4,-0.1 0.7,-0.5 0.7,-0.9 -0.4,-0.8 0.1,-1.5 0.5,-2 0.2,-1.1 0.9,-1.8 1.3,-2.8 0.9,-1.9 2,-3.7 3.1,-5.5 0.1,0 0.2,0.2 0.4,0.1 2,-0.7 4.6,0 6.9,-0.1 l 0.3,0.3 c 0.2,2.2 -0.2,4.4 -0.4,6.6 -0.8,2.6 -3.8,2.4 -5.9,2.9 -0.5,0.4 -1.6,0.2 -1.6,1.1 2.6,0.5 5.7,0.2 8.5,0.2 0.5,-0.2 0.5,-0.6 0.8,-1 0.1,-0.6 0.7,-1.1 0.5,-1.7 -0.5,-0.6 0,-1.6 -0.2,-2.5 0.1,-0.2 0.1,-0.5 0,-0.9 0.4,-1.3 0.3,-2.9 0.5,-4.2 0.8,0.1 1.2,1 2,1.1 0.4,-0.6 -0.5,-0.9 -0.7,-1.3 1,-0.2 2.1,0 3,0.5 l -0.4,0.5 c -0.3,0.5 0.1,0.9 0.5,1 0.3,0.1 0.5,-0.1 0.8,-0.2 0.6,-0.4 0,-0.8 0.1,-1.2 3.3,0.6 6.5,1.4 9.6,2.7 0.9,0.3 1.7,0.9 2.6,0.9 -0.9,-0.9 -2.3,-1.3 -3.4,-1.8 -0.8,-0.5 -1.9,-0.5 -2.4,-1.1 0.1,-0.2 0.4,-0.1 0.6,-0.3 1.5,-0.2 2.8,-1.3 3.9,-2.5 0.1,-0.3 0.6,-0.2 0.5,-0.5 -0.4,-0.5 -1.1,0.1 -1.6,0.1 -1.9,0.4 -2.7,2.6 -4.6,3 -2.3,-0.5 -4.6,-1.1 -6.9,-1.7 -1.1,-0.2 -2.3,-0.3 -3.4,-0.7 0,-0.9 0.2,-1.7 0.3,-2.5 0.1,-0.3 0.2,-0.6 0.2,-1 0.1,-0.2 0.3,-0.3 0.4,-0.5 l 0.9,-0.4 c 1.1,-0.3 2.5,-0.1 3.6,0 0.7,0.4 1.5,0.3 2.3,0.5 0.3,-0.2 0.8,-0.3 1.1,-0.2 1.4,-0.8 0.5,-2.5 0.6,-3.8 1.3,-1.1 2.4,-2.4 3.4,-3.7 0,-0.4 -0.2,-0.7 -0.5,-0.9 -0.3,-0.1 -0.7,-0.1 -0.9,0.2 -0.5,0.4 0,0.9 0,1.4 -0.5,0.7 -1.4,1.4 -2.1,1.8 0,0 -0.2,0 -0.4,0.1 l -0.1,-0.3 c -0.1,-0.3 -0.3,-0.6 -0.4,-0.9 -0.3,-0.3 -0.4,-0.9 -0.7,-1.2 -0.8,-2 -2.3,-3.1 -3.5,-4.7 -2.3,-3 -5.9,-4.7 -9.5,-5.9 -3.6,-1.2 -7.2,0.4 -10.4,1.5 -1,-0.3 -1.5,-1 -1.8,-1.9 -0.2,-1.7 0.2,-3.4 0.9,-4.8 0.1,-1.1 0.9,-2 1.2,-3 0.8,-2.5 1.7,-5 1.8,-7.8 0.1,-1.7 -1.2,-2.9 -2.4,-3.6 -0.9,-0.2 -1.8,-0.2 -2.5,0.5 -0.6,1.2 -1.8,2 -2.9,2.6 -0.1,0.8 0.9,0.3 1.2,0.5 1,0.2 2.1,-0.1 2.9,0.5 0.1,1.8 -0.9,3.3 -1.9,4.7 -1.5,2.3 -3.2,4.6 -4.1,7.1 v 0 -2.4 0 0 h -21.4 c -1.1,-0.4 -1.9,-1.5 -3.1,-1.5 -2.5,-1 -4.2,1.6 -6.8,1.3 -0.3,0.2 -0.2,0.5 -0.4,0.7 -0.1,0.1 -0.4,0 -0.5,0 -0.1,-1.1 -0.5,-2.1 -0.6,-3.1 -0.3,-0.5 -0.1,-1.1 -0.4,-1.5 -1.4,-3.9 3.5,-1 4.5,-3.3 0.9,-2 -1.7,-2.2 -2.4,-3.6 v -0.6 c -0.7,-0.7 -1.5,-1 -1.9,-1.9 0.3,-1.1 0.5,-2.4 0.1,-3.5 0,-0.3 -0.2,-0.6 -0.6,-0.5 -0.9,1.2 -1.5,2.1 -2.3,3.3 -0.9,-0.6 -1.7,-1.5 -2.7,-2 -0.7,-0.1 -1.3,-0.8 -2.1,-0.5 -0.1,0.3 0,0.5 0.1,0.7 0,1.8 0.9,3.2 2.2,4.4 l 0.1,0.7 c -0.8,1.9 -0.6,4 -0.8,6 -2,5.2 -5.3,10.2 -9.8,13.7 -2.6,2.9 -5.6,5.7 -6,9.7 -0.1,0.6 0.1,1.4 -0.4,1.9 -1.5,-0.5 -3,-1.3 -4.2,-2.2 -2.1,-1.5 -5,-1.3 -6.4,-3.9 -0.5,-1 0.1,-2.1 0.6,-2.9 1.5,-1.5 1.3,-4 0.5,-5.8 -0.2,0 -0.2,0.2 -0.4,0.2 -0.1,2.7 -2.3,4.5 -1.4,7.5 0.2,0.9 0.6,1.4 0.9,2.2 -0.3,-0.1 -0.8,-0.1 -1,-0.2 -1,-0.1 -2,-0.5 -3,-0.4 -2.1,1 -4.9,-0.2 -6.6,1.7 -0.3,0 -0.6,0.1 -0.5,0.5 1,0 1.9,0.3 2.9,0.2 1.6,0.3 2.6,-1 3.7,-1.6 h 0.3 c 0.5,-0.5 1.2,-0.2 1.8,-0.3 2.8,0.3 5,1.7 7.4,3.1 v 0.2 c -0.9,0.4 -1.9,0.7 -2.8,1.2 -1,0.8 -2.2,1.8 -2.5,3 -0.7,1.1 0.2,2.1 0.7,3.1 0,0.5 0.1,1 0.5,1.2 1.4,-1.5 0.1,-3.4 0.3,-5.2 0.4,-1.4 1.6,-2 2.9,-2.4 2.6,-1.1 4.4,1 6.5,2.2 0,2.1 0.2,4.1 -0.2,6.1 -0.6,0.2 -1.4,0.4 -2.1,0.3 -3.6,0.3 -6.4,2.2 -9.6,3.3 -1.4,0.5 -3.2,0.5 -4.6,1 1.1,0.3 2.3,-0.1 3.5,-0.1 4.4,-0.6 7.8,-4 12.6,-3.4 l 0.1,0.1 c -0.5,1.1 -1.3,2.1 -2.1,2.9 -0.1,-0.5 -0.2,-0.9 -0.6,-1.2 -0.4,-0.2 -0.8,0 -1,0.4 -0.1,0.2 -0.1,0.5 0,0.7 0.2,0.4 0.6,0.5 1,0.6 -0.1,0.4 -0.6,0.6 -0.9,1 -1.3,2.1 -3.8,1.3 -5.3,2.8 -0.2,0.3 -1,0.5 -0.7,1 1.7,0.2 3.4,-0.3 4.6,-1.2 1.7,-1.9 3.4,-3.6 5.1,-5.4 0.3,1.5 -0.1,3 -1,4.1 -0.4,-0.2 -0.7,-0.5 -1.2,-0.7 -0.5,0.1 -0.8,0.5 -0.8,0.9 0.2,0.3 0.4,0.7 0.7,0.9 -1.5,1.1 -3.5,1.2 -5.2,1.7 -3.3,0.4 -6.5,0.7 -9.8,0.7 -1.6,-0.1 -3.4,0.5 -4.9,0 -1.7,0.3 -3.6,-0.2 -5,0.7 -0.2,0.2 0,0.5 0,0.7 2.1,1.4 4.9,0.3 7.3,0.7 h 17.7 c 1.3,0 2.6,-0.1 3.6,-0.7 2.3,-1.3 3.6,-3.7 4.7,-6 0.4,-0.8 0.8,-1.8 0.9,-2.7 0.4,-1.5 1.8,-2.6 3.4,-2.8 0.2,2.4 -0.2,4.7 -0.8,6.9 -0.3,1.5 -1.2,2.9 -0.6,4.4 0.1,0.7 0.9,0.7 1.5,0.8 5.4,-0.1 10.9,-0.3 16.7,0.1 1,0.2 1.9,0.5 3.1,0.5 0.1,-0.1 0.4,-0.2 0.3,-0.5 -0.1,-0.5 -0.5,-1.1 -1.1,-1.3 -0.1,-0.3 -0.5,-0.2 -0.6,-0.4 -2.9,-1.6 -6.3,-0.8 -9.7,-0.7 -1.8,0.2 -3.5,0.5 -5,-0.5 -0.7,-0.8 -0.2,-3.4 -0.2,-3.4 0,-0.5 0.7,-2.8 1.4,-4.9 1.4,0.4 4.8,2.4 4.8,2.4 1.6,0.6 3,1.5 4.5,2.4 6.1,3.4 10.2,9 12.9,15.3 0,0.5 0.5,1 0.2,1.5 -0.9,-1.5 -2.3,-2.3 -3.4,-3.4 -0.3,-2.1 -1.6,-4.2 -3.4,-5 -0.7,-1 -2.1,-1.1 -3.2,-1.4 l -16.4,-0.1 c -13.3,-0.2 -25.5,0.4 -38.7,0.2 -1.8,-0.2 -4.1,-0.8 -4.6,-2.8 -0.4,-0.7 -0.4,-1.9 0,-2.5 0.5,-0.9 1.4,-1.1 2.3,-1.2 0.7,0.1 1.2,0.8 1.5,1.3 0,0.6 -0.5,1.1 -0.7,1.6 0,0.2 0.2,0.5 0.5,0.4 0.6,-0.2 1,-0.9 1.2,-1.5 0,-0.3 0.2,-0.8 -0.1,-1 -0.3,-1 -1.3,-1.6 -2.1,-1.9 -1.1,-0.1 -2.3,0.2 -3.1,1 -1.1,0.9 -1,2.5 -0.7,3.8 0.7,2 2.8,3.4 4.9,3.6 l 43.8,0.2 c 4.3,0.2 9.1,-0.5 13.4,0.4 1.6,0.5 3.2,1.7 3.6,3.4 0,0.1 -0.2,0 -0.3,0 -3.6,-2.3 -8.2,-3.2 -12.8,-2.6 -1.8,-0.1 -3.4,0.6 -5,1 -0.9,0.2 -1.7,-0.2 -2.2,-0.7 -1.6,-1.5 -4.5,-1.4 -6.5,-0.8 0,0.1 0,0.3 0,0.3 2.2,-0.2 3.5,1.7 5.5,2 0.4,0.1 0.8,-0.4 1.2,0 -2.1,1 -4.1,2.2 -6.3,2.8 -0.7,-0.1 -1,-0.8 -1.6,-1.1 -0.9,-0.9 -2.4,-0.5 -3.6,-0.6 -0.4,0.1 -0.8,-0.2 -1,0 0.4,0.7 1.2,1.1 1.9,1.5 1.1,0.5 2.4,0 3.5,0.6 -0.3,0.3 -0.6,0.4 -0.9,0.6 -2.1,0.8 -3.9,2.7 -6.2,2.6 -2.5,0.3 -5,-0.5 -6.7,-2.2 -0.7,-1.8 -2.6,-2.7 -4.6,-2.6 -0.1,0.1 -0.3,0.1 -0.3,0.3 1,0.6 1.8,1.8 2.7,2.5 0.6,0.8 1.8,0 2.4,0.9 0.9,0.6 1.9,1.1 2.9,1.3 0.7,0.3 1.5,0.5 2.3,0.6 l -0.3,0.2 c -4.1,1.4 -8.8,1.5 -13.4,1.3 -1.4,0 -2.7,-0.5 -4,-0.4 0.2,0.3 0.7,0.5 1.1,0.6 -0.4,0.2 -0.8,0.3 -1.2,0.4 -0.5,0.1 -1.2,0.2 -1.7,0.4 -0.7,0 -1.4,0.2 -1.9,0.5 -0.8,0.8 -1.7,1.7 -2.6,2.1 0,0.2 0,0.5 0.2,0.5 0.9,-0.4 1.9,-0.1 2.8,-0.5 1.5,-0.1 2.3,-1.8 3.5,-2.4 1.3,-1 3.1,-0.8 4.6,-0.5 0.9,0.2 -0.1,0.6 0.2,1.2 0.4,0.3 0.7,0.7 1.2,0.5 0.1,-0.1 0.2,-0.2 0.3,-0.2 0.3,-0.4 0.2,-0.8 0,-1.1 0.6,-0.4 1.5,0 2.2,-0.2 1.7,0 3.4,-0.4 5.1,-0.5 0.3,0 0.6,-0.3 0.9,0 -0.1,0.4 -0.6,0.4 -0.4,0.9 0.1,0.4 0.5,0.6 0.9,0.7 0.5,-0.2 0.9,-0.5 0.7,-1.1 -0.1,-0.3 -0.5,-0.4 -0.7,-0.5 0.9,-0.5 2,-0.6 3,-1 0.7,-0.1 1.3,-0.4 1.9,-0.6 0.6,0 1.1,-0.6 1.6,-0.4 -0.2,0.8 -0.5,1.5 -0.9,2.2 -0.7,2.4 -1.3,5.6 0,7.9 0.1,0 0.2,0 0.3,-0.1 -0.9,-2.4 -0.4,-5.2 0.4,-7.4 0.6,-3.9 4.6,-5 7.4,-6.4 l 0.1,0.2 c -0.8,2 -1.9,3.9 -1.7,6.3 0.1,0.4 -0.2,0.8 0,1.1 0.8,-0.4 1.3,-1.3 1.7,-2.1 0.3,-2 -0.9,-4.6 1.2,-6.1 3.7,-1.5 7.2,-3.4 11.4,-3.4 0.1,0.1 0.4,-0.1 0.5,0.2 -0.9,1 -2.2,2 -2.6,3.2 -1.4,2 -1.4,5.4 -0.8,7.8 0.4,1.4 -0.8,2.2 -1.4,3.3 -0.3,0.4 -0.4,1 -0.6,1.5 l 0.9,0.1 c 0.8,-0.8 1.5,-1.8 1.5,-3 0.1,0.5 0.5,0.8 0.9,0.9 0.3,-0.5 -0.3,-0.9 -0.3,-1.4 0.7,-0.4 1,0.5 1.6,0.7 0.9,0.2 1.8,0.6 2.7,0.6 l 0.3,-0.3 c -1,-1.5 -3,-1.8 -4.7,-1.9 -0.9,-1.5 -0.9,-3.4 -0.8,-5.2 0.2,-1 0.4,-2 0.9,-2.8 0.2,-0.6 0.9,-1.2 1.3,-1.7 0.8,-0.8 1.8,-1.3 2.8,-1.5 h 0.1 c 0,0.1 0,0.1 0,0.1 -1.2,1 -1.4,2.3 -2.1,3.4 -0.8,1.1 -1.1,2.7 -0.4,3.9 0.3,0.6 0.1,1.5 0.8,1.9 0.6,-0.8 0.6,-1.9 0.9,-2.8 -0.1,-1.5 -1,-2.9 -0.2,-4.4 0.5,-1.1 1.4,-1.6 2.4,-2 2.5,-0.2 4.6,1 6.8,2 0.5,0.3 1.2,0.6 1.3,1.2 0,1.2 -0.7,2.5 -1.7,3 -1.2,0.7 -3,0.8 -4.1,0 -0.7,-0.7 -0.9,-1.9 -0.7,-2.8 0.5,-0.5 1.2,-1 2,-0.7 0.5,0.2 0.9,0.7 1.4,0.4 0.2,-0.1 0.3,-0.5 0.2,-0.7 -0.5,-0.3 -0.7,-1 -1.4,-1 -0.9,-0.1 -1.9,-0.1 -2.5,0.5 -0.9,0.8 -1.3,2 -1,3.2 0.3,1.5 1.4,2.5 2.8,2.9 2.1,0.5 4.2,-0.1 5.5,-1.9 0.5,-0.6 0.7,-1.2 1,-2 2.2,1.3 3.8,3.6 4.6,6 0,0.8 0.2,1.6 0,2.3 l 1.6,0.1 c -0.1,-0.4 0,-0.8 0.1,-1.1 0.6,-3 2.4,-5.5 4.6,-7.4 0.8,-0.5 0.6,0.6 0.8,0.9 0.7,1.7 2.3,2.9 3.9,3.4 1.9,0.3 3.7,-0.1 4.9,-1.6 0.6,-1.1 1.3,-2.7 0.3,-3.8 -0.6,-0.8 -1.5,-1.2 -2.5,-1.2 -1.2,0 -1.9,0.8 -2.5,1.7 0,0.4 0,0.8 0.3,1 0.2,0 0.5,0 0.7,-0.2 0.1,-0.7 0.7,-1 1.2,-1.4 0.5,-0.3 1,0 1.4,0.3 0.5,0.4 0.6,1.1 0.6,1.8 -0.1,0.9 -0.7,1.8 -1.5,2.1 -1.3,0.7 -3.2,0.4 -4.3,-0.4 -0.5,-0.6 -0.9,-1.3 -1.3,-2 -0.1,-0.7 -0.4,-1.4 0,-2.1 2,-1.2 4.1,-2 6.4,-2.3 0.9,0.2 1.8,0.8 2.4,1.5 2.1,2.1 -0.4,5.2 1,7.5 0.5,-0.1 0.5,-0.8 0.8,-1.3 0.7,-1.6 -0.2,-3.4 -0.6,-5 -0.5,-1 -0.9,-1.9 -1.7,-2.7 0.2,-0.1 0.3,-0.1 0.5,-0.1 0.9,0.6 2,1.4 2.7,2.4 1.3,2.1 2,4.7 1.8,7.4 -0.4,1.4 -1.8,2 -2.9,2.5 -0.4,0.4 -1,0.9 -1.2,1.5 0.5,0.3 1.3,0 1.8,-0.2 0.9,-0.3 1.4,-1.4 1.9,-1.9 0.1,0 0,0.2 0.1,0.3 0,0.5 -0.2,1.2 0.2,1.3 0.2,-0.6 0.3,-1.5 0.4,-2.3 0.6,0.6 0.7,1.5 0.9,2.3 0.4,0.8 1.1,1.9 2.2,2 0.3,-0.4 0,-0.8 -0.1,-1.2 -0.1,-1.1 -1.1,-1.7 -1.7,-2.5 -1.6,-2.2 -0.9,-5.6 -2.1,-8 -0.4,-1.3 -1.4,-2.3 -2.4,-3.4 l 0.2,-0.2 c 2.2,0 4.1,0.7 6.1,1.1 2.5,1.2 6.1,1 7.3,4.2 0.5,1.8 1.3,3.5 2.6,4.9 l 0.1,-0.1 c 0.3,-0.5 0.3,-1.2 0,-1.7 -0.3,-2.3 -2.3,-2.8 -3.3,-4.7 l 0.1,-0.2 c 1.1,0.3 2.2,0.6 3.3,1 3.6,1 6.1,4.5 6.6,8.2 0,2.9 -0.5,5.3 -1.7,7.8 -0.1,0.4 -0.8,0.8 -0.4,1.1 0.5,-0.4 0.6,-1 0.9,-1.4 1.5,-2.5 2.3,-5.9 1.5,-9.1 0,-0.6 -0.7,-1 -0.4,-1.6 0.2,0.3 0.5,0.3 0.8,0.4 0.3,-0.2 0.7,-0.2 0.9,-0.5 0,-0.3 0.2,-0.6 0,-0.8 -0.3,-0.4 -0.9,-0.4 -1.3,-0.3 -0.2,0.3 -0.5,0.6 -0.5,1 -0.4,-0.8 -0.9,-1.8 -1.6,-2.4 l 0.1,-0.1 c 2,0.7 3.9,1.7 5.9,2.2 0.4,0.3 0.9,0.5 1.6,0.5 1.8,0.7 3.7,0.9 5.5,1.4 1.1,-0.6 2.2,0 3.6,-0.3 m -19.8,-29.7 -0.1,1.5 h -4.6 c 0,-0.1 -0.2,-0.1 -0.1,-0.3 1.6,-0.4 3,-1.4 4.6,-1.8 z m -4.7,-2.2 c 0.4,-0.4 0.5,-0.8 0.8,-1.2 0,-0.5 -0.2,-0.6 -0.5,-1 0.3,-0.3 0.8,-0.2 1.2,-0.3 1.1,0.7 2.3,1.8 2.5,3 -1.8,0.8 -3.6,1.6 -5.5,2 0.4,-0.8 0.9,-1.7 1.5,-2.5 m -16,-10.8 c 1.4,2.4 3.2,5.1 5.9,6 1.4,1.2 3.2,2.6 5.2,1.5 1,-0.3 1.1,1.1 1.6,1.7 0.5,1.7 -0.7,2.9 -0.8,4.4 -0.2,0.5 -0.6,0.9 -1.1,1 -0.7,0.1 -1.3,0.6 -2.1,0.6 -5.9,2.3 -11.9,4.7 -16.6,9.3 0.3,-0.5 0.4,-1.2 0.4,-1.9 -0.1,-0.7 0,-1.5 -0.5,-2 -0.1,-0.2 -0.4,-0.9 -0.3,-1.2 l 5.6,-3.6 c 1.4,-0.7 2.5,-2.8 2.5,-5.2 v -14.8 z m -0.9,11 c -0.2,1.8 -0.8,3.3 -2,4.2 l -11.8,7.5 h -0.1 c -0.2,0.2 -0.6,0.3 -0.9,0.3 -0.4,0 -0.7,-0.1 -0.9,-0.3 l -11.8,-7.5 c -1.3,-0.9 -1.9,-2.4 -2,-4.2 v -6.1 c 0.1,0.1 0.2,0.2 0.4,0 1.2,-0.8 0.8,-2.5 0.8,-3.7 0.3,-1.4 -0.7,-2.1 -1.1,-3.3 0,0 0,0 -0.1,0 v -10.4 h 4.9 c 0.4,0.1 0.7,0.4 1.1,0.5 l 0.3,-0.5 h 23.3 v 23.5 z m -32.3,-17.2 c 0.3,-1 0.5,-2 1.5,-2.6 0.1,0.1 0.2,0.2 0.2,0.3 v 0 5 c -0.4,-0.9 -2.2,-1.6 -1.7,-2.7 m 8.6,30 c -4.6,-3.5 -9.7,-6.6 -15,-9 0.5,-1.4 0.9,-2.4 1,-2.7 0.1,-0.7 0.4,-1.3 0.3,-2.1 0.4,-0.9 0.3,-2.1 0.3,-3.1 0.2,-1.5 0.9,-2.8 1.4,-4.2 0.3,-0.7 0.5,-1.4 0.8,-2.1 0.3,-0.9 0.4,-1.7 0.9,-2.4 1.4,0.9 2.7,0.9 3.5,2.3 v 10.1 c 0,2.4 1,4.6 2.5,5.2 l 4.9,3.1 c 0,1.7 -1,3.1 -0.6,4.9 z m 7,9.5 c -1.5,-3.2 -3.4,-5.7 -5.8,-8.3 -0.1,-0.4 -0.5,-0.8 -0.3,-1.2 0.9,-0.8 1,-2.4 0.6,-3.4 -0.1,-0.2 -0.4,-0.5 -0.3,-0.7 l -0.4,-0.3 6.9,4.4 c 0.3,0.3 0.7,0.5 1.1,0.5 0.4,0 0.7,-0.1 1,-0.4 l 2.3,-1.5 c -1.7,2.5 1.1,6.2 -1.1,8.6 v 0.2 c -0.6,0.8 -0.9,1.6 -1.8,2.2 -1.1,-0.5 -1.5,-1.7 -2.1,-2.6 -1,-1 -1,-2.9 -0.4,-4.2 0.4,-1.3 -0.3,-2.4 -0.4,-3.6 l -0.4,-0.3 c -1.1,1.4 -1.5,3.6 -0.6,5.3 0.4,0.8 0.5,2 1.2,2.6 0.4,1.3 1.2,2.2 1.9,3.4 0.2,0.5 -0.3,0.5 -0.5,0.8 -0.6,-0.5 -0.5,-1.2 -0.9,-1.5 m 3,5 c -0.2,0.5 -0.5,1 -0.5,1.6 l -0.2,0.1 c 0.1,-0.7 -0.5,-1.1 -0.4,-1.8 -0.4,-0.5 -0.4,-1.2 -0.7,-1.8 -0.4,-0.7 0.4,-1 0.7,-1.5 0.6,0.3 0.9,0.9 1.3,1.4 0.3,0.7 -0.2,1.3 -0.2,2 m -0.3,-4.3 c 1.5,-2 2.7,-4.1 3.2,-6.6 0.3,-0.2 0.1,-0.8 0.4,-1.1 -0.1,-0.7 0.4,-1.5 0,-2 0.3,-1 -1.3,-1.9 -0.3,-2.5 l -0.2,0.1 2.9,-1.8 c -0.4,1 -0.7,2.8 -0.3,3.8 0.1,0.8 0.8,1.8 0.2,2.5 -2.2,2.6 -3.4,5.8 -4.8,8.8 -0.6,-0.2 -0.8,-0.7 -1.1,-1.2"
   id="path238"
   inkscape:connector-curvature="0"
   style="fill:#231f20" />
		<path
   class="st0"
   d="m 211.9,320.2 c -2.4,-0.5 -4.9,0.4 -6.5,2.1 -0.1,0.1 0,0.2 0.1,0.3 0.2,0 0.4,-0.1 0.6,-0.1 2.3,-0.1 4.5,-0.5 6,-1.9 0,-0.2 -0.2,-0.3 -0.2,-0.4"
   id="path240"
   inkscape:connector-curvature="0"
   style="fill:#231f20" />
		<path
   class="st0"
   d="m 203.9,322.1 c 0.5,-0.2 0.9,-0.6 0.7,-1.2 -0.2,-0.6 -1,-0.6 -1.4,-0.3 -0.1,0.2 -0.5,0.4 -0.3,0.8 0.2,0.4 0.5,0.7 1,0.7"
   id="path242"
   inkscape:connector-curvature="0"
   style="fill:#231f20" />
		<path
   class="st0"
   d="m 117.4,321.5 c 0.1,0.3 0.3,0.6 0.6,0.7 0.2,0 0.6,0 0.8,-0.2 0.3,-0.2 0.3,-0.6 0.2,-1 -0.3,-0.4 -0.7,-0.4 -1,-0.4 -0.4,0.3 -0.6,0.5 -0.6,0.9"
   id="path244"
   inkscape:connector-curvature="0"
   style="fill:#231f20" />
		<path
   class="st0"
   d="M 110.9,324.3 V 324 c -1.7,-1.2 -3.1,-3 -5.3,-3 -0.3,0.1 0,0.3 0,0.4 1,0.5 1.8,1.4 2.4,2.3 0.8,0.5 1.8,0.8 2.9,0.6"
   id="path246"
   inkscape:connector-curvature="0"
   style="fill:#231f20" />
		<path
   class="st0"
   d="m 218.1,320.9 c -1.8,0.7 -3.3,2.6 -4,4.3 0.3,0.3 0.5,-0.1 0.9,-0.1 1.8,-0.7 2.7,-2.6 3.8,-4.1 -0.3,-0.1 -0.5,-0.1 -0.7,-0.1"
   id="path248"
   inkscape:connector-curvature="0"
   style="fill:#231f20" />
		<path
   class="st0"
   d="m 120.2,321.9 c 0.2,0.3 0.4,0.5 0.8,0.5 0.3,-0.3 0.7,-0.4 0.6,-0.9 -0.2,-0.3 -0.6,-0.6 -0.9,-0.5 -0.3,0.2 -0.7,0.4 -0.5,0.9"
   id="path250"
   inkscape:connector-curvature="0"
   style="fill:#231f20" />
		<path
   class="st0"
   d="m 224.4,321.8 -0.2,-0.3 c -1.4,0.6 -2.3,2.1 -3,3.5 -0.2,0.4 -0.8,0.9 -0.5,1.3 1.4,-0.2 2.2,-1.4 3.1,-2.5 0.4,-0.6 0.2,-1.4 0.6,-2"
   id="path252"
   inkscape:connector-curvature="0"
   style="fill:#231f20" />
		<path
   class="st0"
   d="m 95.6,322.3 c -0.2,0.4 0,0.9 0.4,1.1 0.4,0.1 0.8,0 1,-0.2 0.3,-0.4 0.1,-0.7 0,-1 -0.4,-0.6 -1.2,-0.3 -1.4,0.1"
   id="path254"
   inkscape:connector-curvature="0"
   style="fill:#231f20" />
		<path
   class="st0"
   d="m 93.3,322.4 c -0.4,0.2 -0.5,0.5 -0.4,1 0.2,0.4 0.5,0.7 1,0.6 0.3,0 0.5,-0.3 0.6,-0.5 0,-0.2 -0.1,-0.4 -0.1,-0.6 -0.2,-0.5 -0.7,-0.7 -1.1,-0.5"
   id="path256"
   inkscape:connector-curvature="0"
   style="fill:#231f20" />
		<path
   class="st0"
   d="m 98,323.5 c 0.4,0.4 0.7,0.8 1.4,0.5 0.5,-0.1 0.5,-0.7 0.4,-1.1 -0.3,-0.4 -0.7,-0.4 -1.2,-0.4 -0.4,0.3 -0.6,0.6 -0.6,1"
   id="path258"
   inkscape:connector-curvature="0"
   style="fill:#231f20" />
		<path
   class="st0"
   d="m 106.2,323.2 c -0.3,0.1 -0.4,0.3 -0.6,0.5 -0.3,0.3 0.2,0.5 0.3,0.8 0.2,0 0.6,0.1 0.9,-0.1 0.4,-0.1 0.3,-0.5 0.3,-0.9 -0.2,-0.3 -0.6,-0.1 -0.9,-0.3"
   id="path260"
   inkscape:connector-curvature="0"
   style="fill:#231f20" />
		<path
   class="st0"
   d="m 227,324.1 c 0.2,0.4 0.6,0.5 1,0.5 0.4,0 0.5,-0.4 0.7,-0.7 -0.1,-0.5 -0.7,-0.7 -1.1,-0.7 -0.4,0.2 -0.8,0.4 -0.6,0.9"
   id="path262"
   inkscape:connector-curvature="0"
   style="fill:#231f20" />
		<path
   class="st0"
   d="m 220.5,324.1 c -0.3,-0.5 -0.6,-0.8 -1.2,-0.7 -0.4,0.1 -0.7,0.4 -0.8,0.8 0.2,0.5 0.8,1 1.4,0.7 0.2,-0.1 0.6,-0.4 0.6,-0.8"
   id="path264"
   inkscape:connector-curvature="0"
   style="fill:#231f20" />
		<path
   class="st0"
   d="m 224.8,323.7 c -0.3,0.3 -0.6,0.6 -0.2,1 0.3,0.3 0.7,0.3 1.1,0.2 0.2,-0.1 0.4,-0.5 0.4,-0.8 -0.2,-0.6 -0.9,-0.6 -1.3,-0.4"
   id="path266"
   inkscape:connector-curvature="0"
   style="fill:#231f20" />
		<path
   class="st0"
   d="m 94.7,324.4 c -0.4,0.1 -0.5,0.5 -0.4,1 0.1,0.4 0.6,0.6 1,0.6 0.5,-0.2 0.6,-0.6 0.5,-1.1 -0.3,-0.4 -0.6,-0.7 -1.1,-0.5"
   id="path268"
   inkscape:connector-curvature="0"
   style="fill:#231f20" />
		<path
   class="st0"
   d="m 217.6,326.5 c 0.5,-0.2 0.8,-0.7 0.6,-1.2 -0.3,-0.5 -1.2,-0.8 -1.5,-0.1 -0.4,0.2 -0.1,0.7 0,1 0.3,0.2 0.5,0.4 0.9,0.3"
   id="path270"
   inkscape:connector-curvature="0"
   style="fill:#231f20" />
		<path
   class="st0"
   d="m 119.1,325.2 c -0.3,0.1 -0.4,0.3 -0.6,0.5 -0.1,0.4 0.1,0.7 0.4,1 0.1,0.2 0.5,0.1 0.7,0 0.1,-0.3 0.7,-0.4 0.5,-0.9 -0.3,-0.3 -0.5,-0.7 -1,-0.6"
   id="path272"
   inkscape:connector-curvature="0"
   style="fill:#231f20" />
		<path
   class="st0"
   d="m 227.9,326.1 c -0.1,-0.5 -0.6,-0.6 -1,-0.6 -0.3,0.1 -0.4,0.3 -0.6,0.5 0,0.4 0,0.8 0.4,1 0.3,0.1 0.8,0 1,-0.2 0,-0.2 0.3,-0.3 0.2,-0.7"
   id="path274"
   inkscape:connector-curvature="0"
   style="fill:#231f20" />
		<path
   class="st0"
   d="m 226.7,330.2 v -0.4 c -0.9,-0.9 -1.6,-1.8 -2.8,-2.4 0,-0.3 0.3,-0.1 0.5,-0.2 0.4,-0.1 0.9,-0.4 0.7,-1 -0.2,-0.3 -0.4,-0.5 -0.7,-0.6 -0.4,-0.1 -0.5,0.2 -0.8,0.2 -0.8,0.5 0.5,1 -0.1,1.6 -0.8,0 -1.9,-0.2 -2.5,0.4 0.4,0.3 0.9,0.3 1.2,0.5 1.3,1.4 2.9,1.8 4.5,1.9"
   id="path276"
   inkscape:connector-curvature="0"
   style="fill:#231f20" />
		<path
   class="st0"
   d="m 205,326.2 c -0.1,0.5 0.2,0.7 0.5,1 0.3,0.1 0.7,0.1 1,-0.2 0,-0.2 0.3,-0.5 0.2,-0.7 -0.1,-0.7 -1.3,-0.8 -1.7,-0.1"
   id="path278"
   inkscape:connector-curvature="0"
   style="fill:#231f20" />
		<path
   class="st0"
   d="m 106,327.9 c 0,-0.7 -0.9,-1 -1.4,-0.5 0,0.2 -0.3,0.4 -0.2,0.7 0.1,0.4 0.5,0.5 0.8,0.5 0.4,0 0.6,-0.3 0.8,-0.7"
   id="path280"
   inkscape:connector-curvature="0"
   style="fill:#231f20" />
		<path
   class="st0"
   d="m 105.9,330.6 c -0.2,0.4 -0.9,0.9 -0.8,1.3 1.7,-0.1 2.9,-1.5 3.6,-3 0.2,-0.6 0.9,-1 0.9,-1.6 h -0.3 c -1.3,1 -2.7,1.8 -3.4,3.3"
   id="path282"
   inkscape:connector-curvature="0"
   style="fill:#231f20" />
		<path
   class="st0"
   d="m 203.9,327.5 c -0.2,0.4 -0.4,0.7 0,1.1 0.2,0.2 0.5,0.5 0.9,0.4 0.4,-0.2 0.8,-0.5 0.8,-1 -0.3,-0.6 -1.1,-1 -1.7,-0.5"
   id="path284"
   inkscape:connector-curvature="0"
   style="fill:#231f20" />
		<path
   class="st0"
   d="m 207.2,327.7 c -0.3,0 -0.4,0.4 -0.6,0.6 0,0.4 0.3,0.6 0.6,0.8 0.1,0 0.4,0 0.5,0.1 0.4,-0.1 0.8,-0.5 0.8,-1 -0.2,-0.5 -0.9,-0.5 -1.3,-0.5"
   id="path286"
   inkscape:connector-curvature="0"
   style="fill:#231f20" />
		<path
   class="st0"
   d="m 116.6,328.2 c -0.3,-0.3 -0.4,-0.7 -1,-0.5 -0.2,0.2 -0.6,0.5 -0.5,0.9 0.2,0.3 0.5,0.6 0.9,0.5 0.3,-0.1 0.6,-0.4 0.6,-0.9"
   id="path288"
   inkscape:connector-curvature="0"
   style="fill:#231f20" />
		<path
   class="st0"
   d="m 118,328.6 c 0.1,0.4 0.5,0.5 0.8,0.5 0.5,-0.1 0.7,-0.4 0.9,-0.8 -0.1,-0.5 -0.6,-0.7 -1,-0.7 -0.3,0.3 -0.7,0.6 -0.7,1"
   id="path290"
   inkscape:connector-curvature="0"
   style="fill:#231f20" />
		<path
   class="st0"
   d="m 218.6,332.3 c 0.1,-0.3 -0.3,-0.5 -0.5,-0.7 -0.5,-1.3 -1.5,-2.4 -2.6,-3.3 -0.4,-0.1 -0.8,-0.6 -1.2,-0.2 0.5,1.4 1.3,2.5 2.3,3.6 0.7,0.1 1.3,0.9 2,0.6"
   id="path292"
   inkscape:connector-curvature="0"
   style="fill:#231f20" />
		<path
   class="st0"
   d="m 218.4,329.7 c 0.4,0.1 1,0.2 1.3,-0.3 0.2,-0.3 0.2,-0.7 0.1,-1 -0.3,-0.1 -0.5,-0.4 -0.9,-0.4 -0.3,0.1 -0.7,0.2 -0.9,0.6 -0.2,0.4 0.2,0.8 0.4,1.1"
   id="path294"
   inkscape:connector-curvature="0"
   style="fill:#231f20" />
		<path
   class="st0"
   d="m 123,329.3 c -0.3,0.3 -0.8,0.4 -0.5,0.9 0.1,0.5 0.7,0.6 1.1,0.5 0.5,-0.2 0.4,-0.8 0.3,-1.1 -0.3,-0.2 -0.5,-0.4 -0.9,-0.3"
   id="path296"
   inkscape:connector-curvature="0"
   style="fill:#231f20" />
		<path
   class="st0"
   d="m 208.3,332.5 -1.3,-1.4 c -0.5,-0.1 -0.8,-1 -1.2,-0.5 0,0.2 0,0.4 0.2,0.5 0.8,2 1.2,4.1 3.2,5.5 h 0.2 c 0.3,-0.2 -0.1,-0.5 0,-0.9 -0.1,-1.1 -0.5,-2.3 -1.1,-3.2"
   id="path298"
   inkscape:connector-curvature="0"
   style="fill:#231f20" />
		<path
   class="st0"
   d="m 127.5,330.6 c -1.4,-0.2 -2.7,0.5 -4,0.9 -0.2,0 -0.3,0.3 -0.2,0.4 2.1,1.2 4.6,0.5 6.4,-0.8 0,0 -0.1,0 0,-0.1 l -2.2,-0.4"
   id="path300"
   inkscape:connector-curvature="0"
   style="fill:#231f20" />
		<path
   class="st0"
   d="m 113.6,334.8 c 0.4,0.3 0.7,-0.2 1,-0.4 1.9,-0.5 3.3,-2.3 4.8,-3.3 v -0.4 c -2.4,0.4 -5,1.7 -5.8,4.1"
   id="path302"
   inkscape:connector-curvature="0"
   style="fill:#231f20" />
		<path
   class="st0"
   d="m 205.6,333.3 c -0.2,-0.4 -0.5,-0.4 -0.9,-0.5 -0.2,0.1 -0.5,0.2 -0.7,0.5 0,0.3 0,0.7 0.4,0.9 0.2,0.2 0.6,0.2 0.9,0 0.3,-0.1 0.4,-0.6 0.3,-0.9"
   id="path304"
   inkscape:connector-curvature="0"
   style="fill:#231f20" />
		<path
   class="st0"
   d="m 201.9,333.5 c -0.1,-0.2 -0.5,-0.1 -0.6,0 -1.6,-0.4 -3.1,-0.1 -4.6,0.2 -0.2,0.2 -0.7,0.1 -0.7,0.5 1.4,0.4 2.7,1.1 4.3,0.5 0.5,-0.2 1.3,-0.6 1.6,-1.2"
   id="path306"
   inkscape:connector-curvature="0"
   style="fill:#231f20" />
		<path
   class="st0"
   d="m 118.9,335.5 c 0.4,-0.1 0.4,-0.5 0.5,-0.7 -0.1,-0.5 -0.5,-0.7 -0.9,-0.8 -0.3,0.1 -0.6,0.2 -0.7,0.5 -0.2,0.3 0.1,0.5 0.2,0.8 0.3,0.2 0.6,0.4 0.9,0.2"
   id="path308"
   inkscape:connector-curvature="0"
   style="fill:#231f20" />
		<path
   class="st0"
   d="m 121.1,334.4 c -0.2,0.1 -0.5,0.2 -0.6,0.4 -0.1,0.3 0,0.6 0.1,0.9 0.3,0.2 0.5,0.4 0.9,0.3 0.4,-0.2 0.5,-0.6 0.6,-0.9 -0.2,-0.3 -0.6,-0.7 -1,-0.7"
   id="path310"
   inkscape:connector-curvature="0"
   style="fill:#231f20" />
		<path
   class="st0"
   d="m 203.2,335.2 c -0.1,0.3 -0.6,0.5 -0.3,0.9 0.1,0.2 0.2,0.6 0.5,0.6 0.3,0.2 0.8,0.1 1,-0.2 0.2,-0.3 0.4,-0.5 0.3,-0.9 -0.2,-0.6 -1,-0.8 -1.5,-0.4"
   id="path312"
   inkscape:connector-curvature="0"
   style="fill:#231f20" />
		<path
   class="st0"
   d="m 205.8,336.8 c 0.5,0.2 0.7,-0.4 1,-0.6 0.1,-0.2 0,-0.4 -0.1,-0.6 -0.2,-0.1 -0.5,-0.5 -0.9,-0.4 -0.6,0.1 -0.7,0.8 -0.5,1.2 0.1,0.1 0.3,0.5 0.5,0.4"
   id="path314"
   inkscape:connector-curvature="0"
   style="fill:#231f20" />
		<path
   class="st0"
   d="m 119.3,336.3 c -0.5,0.3 -0.6,0.9 -0.5,1.3 0.2,0.6 0.8,0.6 1.3,0.5 0.4,-0.3 0.5,-0.7 0.5,-1.2 -0.4,-0.6 -0.9,-0.7 -1.3,-0.6"
   id="path316"
   inkscape:connector-curvature="0"
   style="fill:#231f20" />
		<path
   class="st0"
   d="m 119.3,340.4 v 0.2 c 0.7,0.5 1.4,-0.2 2.2,-0.4 1.3,-0.7 1.5,-2.3 1.6,-3.5 -1.2,1.3 -2.9,2.3 -3.8,3.7"
   id="path318"
   inkscape:connector-curvature="0"
   style="fill:#231f20" />
		<path
   class="st0"
   d="m 196.7,337.1 c -0.2,0.1 -0.5,0.2 -0.6,0.5 -0.1,0.3 -0.1,0.8 0.2,0.9 0.3,0.1 0.8,0.3 1.1,0 0.1,-0.2 0.4,-0.5 0.3,-0.7 -0.2,-0.4 -0.6,-0.7 -1,-0.7"
   id="path320"
   inkscape:connector-curvature="0"
   style="fill:#231f20" />
		<path
   class="st0"
   d="m 128.2,343.4 c -0.4,-1.1 0,-2.5 -0.6,-3.6 0,-0.3 -0.3,-0.3 -0.2,-0.6 -0.5,-0.6 -1,-1.5 -1.7,-1.9 -0.1,0 -0.2,0 -0.3,0.1 0.4,1.6 0.3,3.4 1.3,4.8 0.4,0.4 0.7,1.3 1.5,1.2"
   id="path322"
   inkscape:connector-curvature="0"
   style="fill:#231f20" />
		<path
   class="st0"
   d="m 198.9,337.6 c -0.2,0.2 -0.6,0.4 -0.4,0.8 0.3,0.2 0.5,0.4 0.9,0.4 0.2,-0.2 0.6,-0.3 0.6,-0.7 -0.2,-0.5 -0.6,-0.7 -1.1,-0.5"
   id="path324"
   inkscape:connector-curvature="0"
   style="fill:#231f20" />
		<path
   class="st0"
   d="m 202.4,338.2 c -0.2,1.8 1.1,3.1 2.4,4.3 h 0.2 c 0.2,0.1 0.3,-0.2 0.3,-0.3 0,-1.9 -1.4,-3 -2.6,-4 h -0.3"
   id="path326"
   inkscape:connector-curvature="0"
   style="fill:#231f20" />
		<path
   class="st0"
   d="m 200.8,340.1 c -0.2,0.2 -0.7,0.5 -0.7,0.9 0.1,0.7 0.9,0.7 1.4,0.6 0.2,-0.2 0.5,-0.5 0.4,-0.9 -0.2,-0.4 -0.5,-0.8 -1.1,-0.6"
   id="path328"
   inkscape:connector-curvature="0"
   style="fill:#231f20" />
		<path
   class="st0"
   d="m 195.4,345.5 c 1.2,-1.3 2.9,-2.1 3.5,-3.8 -0.1,-0.4 0.6,-0.9 -0.1,-1 -1.7,0.7 -3,2.4 -3.5,4.1 0,0.2 -0.1,0.5 0.1,0.7"
   id="path330"
   inkscape:connector-curvature="0"
   style="fill:#231f20" />
		<path
   class="st0"
   d="m 200.7,343.3 c 0.3,0.4 0.6,0.5 1,0.5 0.2,-0.2 0.6,-0.4 0.6,-0.8 -0.2,-0.4 -0.6,-0.6 -1,-0.5 -0.3,0.2 -0.6,0.4 -0.6,0.8"
   id="path332"
   inkscape:connector-curvature="0"
   style="fill:#231f20" />
		<path
   class="st0"
   d="m 155.4,262.9 h 13.4 c 0.6,0 1.1,-0.5 1.1,-1.1 0,-0.6 -0.5,-1.1 -1.1,-1.1 h -13.4 c -0.6,0 -1.1,0.5 -1.1,1.1 0,0.6 0.5,1.1 1.1,1.1 m 13,-1.9 h 0.5 c 0.9,0 0.9,1.6 0,1.6 -0.7,0 -1.8,-1.6 -0.5,-1.6 m -5.5,0 h 1.3 c 0.7,0 1.9,1.6 0.6,1.6 h -1.3 c -0.7,0 -1.9,-1.6 -0.6,-1.6 m -5.5,0 h 1.3 c 0.7,0 1.9,1.6 0.6,1.6 H 158 c -0.6,0 -1.9,-1.6 -0.6,-1.6"
   id="path334"
   inkscape:connector-curvature="0"
   style="fill:#231f20" />
		<path
   class="st0"
   d="m 170.3,281.5 c 0.6,0 1.4,0.4 1.4,-0.2 0,-0.8 -0.8,-0.5 -1.4,-0.5 -0.6,0 -1.4,-0.3 -1.4,0.5 0,0.6 0.8,0.2 1.4,0.2"
   id="path336"
   inkscape:connector-curvature="0"
   style="fill:#231f20" />
		<path
   class="st0"
   d="m 168.7,283.3 -1,4.1 2.6,-1 2.5,1 -0.8,-4.1 1.8,0.5 -0.7,-2.2 0.7,-2.3 -2,0.4 1,-3.8 -2.5,1 -2.6,-1 0.9,3.8 -1.9,-0.3 0.5,2.2 -0.5,2.3 2,-0.6 m 1.5,-3.5 c 0.6,1.5 1.9,-0.1 1.9,1.5 0,0.7 -0.1,1.5 -0.6,1.5 h -2 c -0.9,0 -0.9,-0.6 -0.9,-1.5 -0.1,-1.4 1.1,-0.3 1.6,-1.5"
   id="path338"
   inkscape:connector-curvature="0"
   style="fill:#231f20" />
		<polygon
   class="st0"
   points="161.7,281.5 162.1,281.2 162.5,281.5 162.5,281 162.9,280.9 162.6,280.6 162.8,280.2 162.3,280.2 162.1,279.8 161.8,280.2 161.4,280.2 161.6,280.6 161.2,280.9 161.7,281 "
   id="polygon340"
   style="fill:#231f20" />
		<polygon
   class="st0"
   points="160.1,282.3 159.8,282.8 159.4,282.8 159.6,283.1 159.2,283.5 159.7,283.6 159.7,284 160.1,283.7 160.5,284 160.5,283.6 160.9,283.5 160.6,283.1 160.8,282.8 160.3,282.8 "
   id="polygon342"
   style="fill:#231f20" />
		<polygon
   class="st0"
   points="164.1,282.4 163.7,282.5 163.4,282 163.2,282.5 162.7,282.4 162.9,282.8 162.6,283.2 163,283.2 163,283.7 163.4,283.4 163.8,283.7 163.8,283.2 164.3,283.2 163.9,282.8 "
   id="polygon344"
   style="fill:#231f20" />
		<polygon
   class="st0"
   points="163.7,285.5 163.9,285.6 163.9,285.4 164.1,285.3 163.9,285.1 164.1,284.9 163.8,284.9 163.7,284.7 163.5,284.9 163.3,284.9 163.4,285.1 163.2,285.3 163.4,285.4 163.4,285.6 "
   id="polygon346"
   style="fill:#231f20" />
		<polygon
   class="st0"
   points="161,287.3 161.7,287.8 161.7,287 162.4,286.8 161.9,286.2 162.2,285.6 161.4,285.7 161,284.9 160.5,285.7 159.8,285.6 160.2,286.2 159.6,286.8 160.3,287 160.3,287.8 "
   id="polygon348"
   style="fill:#231f20" />
		<polygon
   class="st0"
   points="161.9,245 160.3,248.9 156.3,247.7 158.3,251.4 154.9,253.8 159,254.5 158.8,258.7 161.9,255.9 165,258.7 164.8,254.5 168.9,253.8 165.5,251.4 167.5,247.7 163.5,248.9 "
   id="polygon350"
   style="fill:#231f20" />
		<path
   class="st0"
   d="m 142.1,334.5 0.6,2.5 c 0.2,0.8 0.5,1 0.9,1.2 0.7,0.3 1.5,0.1 1.9,0 0.5,-0.1 1.3,-0.5 1.6,-1 0.3,-0.4 0.3,-1.1 0.2,-1.6 l -0.6,-2.4 c -0.1,-0.5 0.1,-0.6 0.5,-0.8 v -0.2 l -2,0.5 v 0.2 c 0.8,-0.2 0.9,0.1 1.1,0.5 l 0.5,2.3 c 0.1,0.5 0.4,1.6 -1.2,2 -1.3,0.3 -1.5,-0.7 -1.6,-1.2 l -0.6,-2.5 c -0.2,-0.7 0.1,-0.7 0.7,-0.9 v -0.2 l -3,0.7 v 0.2 c 0.7,0.1 0.9,0.1 1,0.7"
   id="path352"
   inkscape:connector-curvature="0"
   style="fill:#231f20" />
		<path
   class="st0"
   d="m 150,335 0.7,0.1 c 0.6,0.1 1.1,0.2 1.2,0.7 0,0.1 0.1,0.9 -0.9,1.1 -1.1,0.3 -1.8,-0.5 -2.2,-1.2 l -0.3,0.1 0.4,1.9 0.3,-0.1 c 0,-0.1 0,-0.3 0.2,-0.3 0.3,-0.1 0.7,0.1 1.6,-0.1 1.7,-0.4 2,-1.4 1.9,-2.1 -0.2,-0.8 -1,-1.1 -1.3,-1.2 l -1.4,-0.3 c -0.8,-0.1 -1,-0.3 -1.1,-0.7 -0.1,-0.5 0.3,-0.8 0.8,-0.9 1.1,-0.2 1.8,0.5 2.1,1 l 0.3,-0.1 -0.4,-1.6 -0.3,0.1 c 0,0.2 0,0.3 -0.2,0.3 -0.3,0.1 -0.7,-0.1 -1.5,0.1 -1.7,0.4 -1.8,1.5 -1.7,1.9 0,0.3 0.1,1 1.8,1.3"
   id="path354"
   inkscape:connector-curvature="0"
   style="fill:#231f20" />
		<path
   class="st0"
   d="m 153.3,332.7 c 0.1,-1.2 1,-1.4 1.6,-1.5 l 0.4,4 c 0.1,0.6 -0.2,0.7 -0.8,0.8 v 0.2 l 3.3,-0.3 v -0.2 c -0.7,0 -0.9,0 -1,-0.6 l -0.4,-4 c 0.6,0 1.6,-0.1 1.9,1.1 h 0.3 l -0.2,-1.5 -5.5,0.5 0.1,1.5 h 0.3"
   id="path356"
   inkscape:connector-curvature="0"
   style="fill:#231f20" />
		<path
   class="st0"
   d="m 162.2,335.7 c -0.6,-0.1 -0.8,-0.1 -0.8,-0.7 v -1.5 h 0.2 l 1.9,2.5 h 1.7 l 1.9,0.2 V 336 c -0.3,-0.1 -0.7,-0.1 -0.7,-0.4 0,-0.1 0.2,-0.4 0.5,-0.9 l 2.1,0.3 c 0.1,0.3 0.3,0.9 0.3,1.1 0,0.3 -0.2,0.2 -0.8,0.2 v 0.2 l 3,0.4 v -0.2 c -0.4,0 -0.6,-0.3 -0.9,-1.2 l -1.5,-4.3 h -0.3 l -2.5,3.9 c -0.3,0.5 -0.5,0.7 -0.9,0.8 -0.1,0 -0.2,0 -0.3,-0.1 l -1.8,-2.2 c 0.5,-0.1 1.4,-0.3 1.5,-1.3 0,-1.3 -1.9,-1.4 -2.6,-1.4 l -3,-0.1 v 0.2 c 0.5,0 0.8,0.1 0.8,0.7 l -0.1,3.4 c 0,0.6 -0.2,0.6 -0.8,0.7 v 0.2 l 3.1,0.1 v -0.4 m 6,-3.1 0.7,2 -1.8,-0.2 z m -6.7,-1.3 c 0,-0.2 0.1,-0.3 0.6,-0.3 0.7,0 1.1,0.4 1.1,1.1 0,1 -0.5,1.2 -1.7,1.1 z"
   id="path358"
   inkscape:connector-curvature="0"
   style="fill:#231f20" />
		<path
   class="st0"
   d="m 177.5,336.2 h -0.3 c -0.6,0.8 -1.2,1.3 -2.6,1.1 -0.6,-0.1 -0.8,-0.2 -0.7,-0.6 l 0.6,-3.6 c 0.1,-0.7 0.4,-0.6 1,-0.5 v -0.2 l -3.2,-0.6 v 0.2 c 0.4,0.1 0.8,0.2 0.7,0.7 l -0.7,3.7 c -0.1,0.5 -0.4,0.4 -0.9,0.4 v 0.2 l 5.2,1 0.9,-1.8"
   id="path360"
   inkscape:connector-curvature="0"
   style="fill:#231f20" />
		<path
   class="st0"
   d="m 177.1,338 3.1,0.7 v -0.2 c -0.5,-0.1 -0.8,-0.2 -0.7,-0.7 l 0.8,-3.6 c 0.1,-0.5 0.5,-0.4 1,-0.4 v -0.2 l -3.1,-0.7 v 0.2 c 0.4,0.1 0.8,0.2 0.7,0.7 l -0.8,3.7 c -0.1,0.5 -0.5,0.4 -0.9,0.4 l -0.1,0.1"
   id="path362"
   inkscape:connector-curvature="0"
   style="fill:#231f20" />
		<path
   class="st0"
   d="m 180.5,338.6 v 0.2 l 1.9,0.2 v -0.2 c -0.3,0 -0.7,-0.1 -0.7,-0.4 0,-0.1 0.2,-0.4 0.5,-0.9 l 2.1,0.2 c 0.1,0.3 0.3,0.9 0.3,1.1 0,0.3 -0.2,0.2 -0.8,0.2 v 0.2 l 3,0.3 v -0.2 c -0.4,0 -0.6,-0.3 -0.9,-1.2 l -1.6,-4.2 H 184 l -2.5,4 c -0.4,0.4 -0.5,0.7 -1,0.7 m 2.8,-3.2 0.7,2 -1.8,-0.2 z"
   id="path364"
   inkscape:connector-curvature="0"
   style="fill:#231f20" />
		<path
   class="st0"
   d="m 160.3,278.2 v 0.5 c 0,0.1 0.1,0.3 0.3,0.3 h 2 c 0.1,0 0.3,-0.1 0.3,-0.3 v -0.6 c 0.2,-0.2 0.4,-0.5 0.4,-0.9 0,-1.9 -1,-0.1 -1.6,-1.7 -0.4,1.3 -1.7,0.2 -1.7,1.6 -0.1,0.6 0,0.9 0.3,1.1 m 1.2,-1.6 c 0.5,0 1.4,-0.2 1.4,0.7 0,0.6 -0.7,0.3 -1.3,0.3 -0.6,0 -1.3,0.4 -1.3,-0.3 0,-0.9 0.6,-0.7 1.2,-0.7"
   id="path366"
   inkscape:connector-curvature="0"
   style="fill:#231f20" />
		<path
   class="st0"
   d="m 179.3,299.9 c 0.5,0 0.8,-0.3 0.8,-0.7 0,-0.4 -0.4,-0.7 -0.8,-0.7 -0.5,0 -0.8,0.3 -0.8,0.7 -0.1,0.4 0.3,0.7 0.8,0.7"
   id="path368"
   inkscape:connector-curvature="0"
   style="fill:#231f20" />
		<path
   class="st0"
   d="m 175.3,273.7 c 0.2,0 0.4,-0.2 0.4,-0.4 0,0 -0.4,-0.8 -0.4,-0.8 0,0 -0.4,0.7 -0.4,0.8 0,0.2 0.2,0.4 0.4,0.4"
   id="path370"
   inkscape:connector-curvature="0"
   style="fill:#231f20" />
		<path
   class="st0"
   d="m 147.7,273.3 c 0,0.2 0.2,0.4 0.4,0.4 0.2,0 0.4,-0.2 0.4,-0.4 0,0 -0.4,-0.8 -0.4,-0.8 0,0 -0.4,0.7 -0.4,0.8"
   id="path372"
   inkscape:connector-curvature="0"
   style="fill:#231f20" />
		<path
   class="st0"
   d="m 154.9,273.7 c 0.2,0 0.4,-0.2 0.4,-0.4 0,0 -0.4,-0.8 -0.4,-0.8 0,0 -0.4,0.7 -0.4,0.8 0,0.2 0.2,0.4 0.4,0.4"
   id="path374"
   inkscape:connector-curvature="0"
   style="fill:#231f20" />
		<path
   class="st0"
   d="m 161.7,273.7 c 0.2,0 0.4,-0.2 0.4,-0.4 0,0 -0.4,-0.8 -0.4,-0.8 0,0 -0.4,0.7 -0.4,0.8 0,0.2 0.2,0.4 0.4,0.4"
   id="path376"
   inkscape:connector-curvature="0"
   style="fill:#231f20" />
		<path
   class="st0"
   d="m 168.5,273.7 c 0.2,0 0.4,-0.2 0.4,-0.4 0,0 -0.4,-0.8 -0.4,-0.8 0,0 -0.4,0.7 -0.4,0.8 0,0.2 0.2,0.4 0.4,0.4"
   id="path378"
   inkscape:connector-curvature="0"
   style="fill:#231f20" />
		<path
   class="st0"
   d="m 147.7,282.6 c 0,0.2 0.2,0.4 0.4,0.4 0.2,0 0.4,-0.2 0.4,-0.4 0,-0.1 -0.4,-0.8 -0.4,-0.8 0,0 -0.4,0.8 -0.4,0.8"
   id="path380"
   inkscape:connector-curvature="0"
   style="fill:#231f20" />
		<path
   class="st0"
   d="m 147.7,291.7 c 0,0.2 0.2,0.4 0.4,0.4 0.2,0 0.4,-0.2 0.4,-0.4 0,-0.1 -0.4,-0.8 -0.4,-0.8 0,0 -0.4,0.8 -0.4,0.8"
   id="path382"
   inkscape:connector-curvature="0"
   style="fill:#231f20" />
		<path
   class="st0"
   d="m 148.8,298.9 c 0,0.2 0.2,0.4 0.4,0.4 0.2,0 0.4,-0.2 0.4,-0.4 0,-0.1 -0.4,-0.8 -0.4,-0.8 0,0 -0.4,0.8 -0.4,0.8"
   id="path384"
   inkscape:connector-curvature="0"
   style="fill:#231f20" />
		<path
   class="st0"
   d="m 154.5,302.7 c 0,0.2 0.2,0.4 0.4,0.4 0.2,0 0.4,-0.2 0.4,-0.4 0,-0.1 -0.4,-0.8 -0.4,-0.8 0,0 -0.4,0.8 -0.4,0.8"
   id="path386"
   inkscape:connector-curvature="0"
   style="fill:#231f20" />
		<path
   class="st0"
   d="m 175.2,282.6 c 0,0.2 0.2,0.4 0.4,0.4 0.2,0 0.4,-0.2 0.4,-0.4 0,0 -0.4,-0.8 -0.4,-0.8 0,0 -0.4,0.7 -0.4,0.8"
   id="path388"
   inkscape:connector-curvature="0"
   style="fill:#231f20" />
		<path
   class="st0"
   d="m 175.2,291.7 c 0,0.2 0.2,0.4 0.4,0.4 0.2,0 0.4,-0.2 0.4,-0.4 0,0 -0.4,-0.8 -0.4,-0.8 0,0 -0.4,0.7 -0.4,0.8"
   id="path390"
   inkscape:connector-curvature="0"
   style="fill:#231f20" />
		<path
   class="st0"
   d="m 174.2,298.9 c 0,0.2 0.2,0.4 0.4,0.4 0.2,0 0.4,-0.2 0.4,-0.4 0,0 -0.4,-0.8 -0.4,-0.8 0,0 -0.4,0.7 -0.4,0.8"
   id="path392"
   inkscape:connector-curvature="0"
   style="fill:#231f20" />
		<path
   class="st0"
   d="m 168.4,302.7 c 0,0.2 0.2,0.4 0.4,0.4 0.2,0 0.4,-0.2 0.4,-0.4 0,0 -0.4,-0.8 -0.4,-0.8 0,0 -0.4,0.7 -0.4,0.8"
   id="path394"
   inkscape:connector-curvature="0"
   style="fill:#231f20" />
		<path
   class="st0"
   d="m 161.5,306.8 c 0,0.2 0.2,0.4 0.4,0.4 0.2,0 0.4,-0.2 0.4,-0.4 0,0 -0.4,-0.8 -0.4,-0.8 0,0 -0.4,0.6 -0.4,0.8"
   id="path396"
   inkscape:connector-curvature="0"
   style="fill:#231f20" />
		<path
   class="st0"
   d="m 168.2,295.2 c -0.4,0.8 -0.4,1.9 -1.3,2.3 -0.3,0.2 -0.3,0.4 -0.3,0.7 l 0.2,0.2 c 0.6,-0.3 1.6,-0.4 1.5,-1.3 0.2,-0.4 0.4,-0.8 0.8,-1.1 0.4,-0.1 0.8,0.1 1,0.5 -0.1,0.6 -0.6,1.1 -1.2,1.3 -0.1,0.1 0,0.2 0,0.3 0.2,0.3 0.6,0.2 0.9,0.1 0.7,-0.5 1,-1.3 1.7,-1.6 0.1,0.4 -0.9,0.6 -0.3,1 0.4,-0.1 0.9,0 1.2,-0.5 -0.3,-0.7 1,-1.1 0.2,-1.7 0,-0.6 0.7,-0.9 0.6,-1.6 -0.3,-0.7 -1.1,-0.7 -1.3,-1.3 0.3,-0.2 0.6,-0.1 0.9,0 0.1,0.1 0.3,0.2 0.6,0.1 l 0.3,-0.7 c 0,-0.1 -0.3,-0.3 -0.5,-0.3 -0.7,0.2 -1.5,0.3 -1.9,0.9 0,0.5 0.3,0.9 0.7,1.1 0.3,-0.1 0.3,0.2 0.5,0.3 0,0.2 -0.1,0.4 -0.3,0.4 -0.5,-0.5 -1.4,0.2 -1.8,-0.5 0.2,-0.6 0.5,-1.4 0,-2 0,-0.1 0.3,-0.3 0.1,-0.4 -0.2,-0.6 -0.9,-0.1 -1.2,-0.1 -0.6,-0.1 -1.2,0.3 -1.5,0.8 0,0.2 0.1,0.4 0.3,0.6 0.2,0 0.3,0 0.3,0.2 l -0.4,0.3 c 0.1,0.1 0.1,0.3 0.2,0.5 -0.3,0.1 -0.6,-0.3 -0.7,-0.5 0,-0.3 0,-0.9 -0.4,-1 -0.1,0 -0.4,0.1 -0.4,0.1 -0.1,0.1 -0.2,0.4 -0.2,0.7 0,0.3 0.2,0.8 0.2,0.8 0,0 1.2,0.8 1.5,1.4"
   id="path398"
   inkscape:connector-curvature="0"
   style="fill:#231f20" />
		<path
   class="st0"
   d="m 141.7,298.8 c -0.5,0 -0.8,0.3 -0.8,0.7 0,0.4 0.4,0.7 0.8,0.7 0.5,0 0.8,-0.3 0.8,-0.7 0.1,-0.4 -0.3,-0.7 -0.8,-0.7"
   id="path400"
   inkscape:connector-curvature="0"
   style="fill:#231f20" />
		<path
   class="st0"
   d="m 96.8,325.2 c 0,0.4 0.4,0.8 0.8,0.8 0.5,0 0.8,-0.4 0.8,-0.8 0,-0.4 -0.4,-0.8 -0.8,-0.8 -0.5,0 -0.8,0.4 -0.8,0.8"
   id="path402"
   inkscape:connector-curvature="0"
   style="fill:#231f20" />
		<line
   class="st2"
   x1="166.10001"
   y1="306.39999"
   x2="166.5"
   y2="306.20001"
   id="line404"
   style="fill:none;stroke:#231f20;stroke-width:0;stroke-linecap:round;stroke-linejoin:round" />
		<path
   class="st0"
   d="m 136.2,339.7 v 0.2 l 1.9,-0.2 v -0.2 c -0.3,0 -0.8,0 -0.8,-0.2 0,-0.1 0.1,-0.5 0.3,-1 l 2.1,-0.2 c 0.2,0.2 0.5,0.8 0.5,1 0,0.3 -0.1,0.3 -0.7,0.4 v 0.2 l 3,-0.3 v -0.2 c -0.4,0.1 -0.6,-0.2 -1.1,-0.9 l -2.5,-3.8 h -0.3 l -1.5,4.4 c -0.3,0.4 -0.4,0.7 -0.9,0.8 m 2.1,-3.7 1.1,1.8 -1.8,0.2 z"
   id="path406"
   inkscape:connector-curvature="0"
   style="fill:#231f20" />
		<path
   class="st0"
   d="m 141.3,331.4 c -0.8,-0.1 -1.5,0.5 -2.3,0.2 l -1.5,0.3 c -0.1,0 -0.3,0 -0.5,0 -0.7,-1.9 1.4,-3 0.8,-4.8 -0.6,-1 -1.8,-2 -3.1,-1.9 -1.5,-0.2 -2.9,0.7 -3.6,1.9 -1,2.3 0.3,4.6 0.7,6.9 -0.1,0.7 0.7,1.5 0,2.1 -1.4,-1 -3.3,-1.5 -5.1,-1 -0.5,0.3 -1.5,-0.1 -1.8,0.5 1.9,1 4.4,0.9 6.6,0.8 0.3,-0.1 0.4,-0.1 0.7,0 0.2,1.2 -0.2,2.8 0.5,3.8 0.8,1.1 2.2,1.4 3.5,1.5 4.1,-0.1 7.8,-1.4 11.6,-2.3 0.6,0 1,-0.4 1.7,-0.4 2,-0.5 4.2,-0.8 6.4,-0.9 -0.9,1.2 -1.5,2.6 -1.9,4.1 -0.5,1.2 0.9,1.4 1.4,2.1 -1.4,0.4 -2.4,1.4 -3.7,1.9 -2.9,-0.1 -5.3,1 -8,1.3 0,0.6 0.9,0.4 1,1 -0.1,0.4 -0.5,0.5 -0.9,0.7 0,0.3 0,0.3 0.3,0.4 0.3,-0.3 0.9,-0.1 1.1,-0.4 0.9,0 1.7,-0.3 2.5,-0.3 0.8,-0.3 1.6,-0.4 2.3,-0.9 0.9,-0.3 1.5,-0.9 2.5,-1.2 1.4,0 2.6,-0.5 3.8,-0.5 v 0.3 c -1,1.7 -2.1,3.4 -3.2,5 -0.2,0.3 0,0.6 0.3,0.7 0.6,0.2 1.3,0 1.8,-0.3 0.9,-1.6 1.8,-3.2 2.6,-4.9 0.3,-1.5 1.4,-2.4 2.6,-3.4 0.2,-0.1 0.4,-0.4 0.6,-0.1 -0.9,1 -1.5,2 -2.2,3.2 -0.4,1.3 -0.5,2.9 0.7,3.9 0.5,0.5 1.4,0.3 2.1,0.4 1.8,-0.9 4,0.5 5.4,-1.2 0.8,-0.1 0.9,0.8 1.4,1.3 0.8,0.2 1.6,1 2.3,0.5 0,-0.5 -0.6,-1 -0.9,-1.4 -0.5,-1 -1.2,-1.7 -1.7,-2.6 -0.2,-0.6 -0.6,-1 -0.7,-1.7 0.8,0.3 1.5,0.8 2.4,1 0.8,0.3 1.7,0.3 2.4,0.7 0.6,0.8 1.5,1.2 2.3,1.7 1.1,0.5 2.4,0.6 3.6,1.1 0.5,0 1.1,0.4 1.4,0 -0.2,-0.2 -0.4,-0.4 -0.7,-0.5 -0.1,-0.6 0.8,-0.3 1.1,-0.7 -0.1,-0.2 -0.3,-0.3 -0.5,-0.3 -0.6,-0.3 -2.3,-0.5 -2.7,-0.7 -0.5,-0.1 -1,-0.3 -1.6,-0.5 -2.7,0 -4.2,-2.4 -6.4,-3.4 0.5,-0.5 1.3,-0.8 1.6,-1.5 0.4,-0.6 0.5,-1.7 0.1,-2.4 -0.4,-1.4 -2.2,-1.2 -3.2,-2 l 0.1,-0.1 c 1.8,-0.1 3.3,0.3 4.9,0.6 4.3,0.6 8.3,2.2 12.8,2.3 2.5,0 5.6,0.1 6.8,-2.3 0.2,-1.4 0.5,-2.8 0.7,-4.2 0.5,-2.3 2,-4.4 1.8,-6.9 -0.5,-1.4 -1.7,-2.4 -3.1,-2.8 -1.4,-0.3 -3,-0.1 -3.9,1 -1.6,1.3 -0.5,3.5 -0.4,5.3 0,0.4 0,0.6 -0.3,0.8 -6.5,-0.6 -12.6,-2.2 -19.1,-2.9 -1.5,-0.3 -3,-0.2 -4.4,-0.5 l -1.8,-0.2 c -5.6,0.2 -11.3,0.5 -16.5,1.9 -1.1,0.4 -2.4,0.4 -3.5,0.9 m 4.4,17.2 -0.6,-0.6 c 0.3,-0.4 1,-0.2 1.5,-0.5 1.2,-0.4 2.5,-0.8 3.8,-0.5 -1.3,1.1 -3.1,1.3 -4.7,1.6 m 28.2,-0.7 c 1.1,0.5 3.2,1 4.8,1.1 -0.1,0.6 -1.2,0 -1.1,0.9 -1.4,-0.5 -3,-0.8 -4.1,-1.9 0.1,0 0.2,-0.1 0.4,-0.1 m -42.3,-19.3 c 0.1,-0.8 0.3,-1.7 1.1,-2.3 1.1,-0.6 2.6,-0.5 3.6,0.1 0.3,0.2 0.5,0.5 0.7,0.9 0.2,0.8 -0.1,1.6 -0.7,2 h -0.4 c 0,-0.7 0,-1.5 0.3,-2 0,-0.5 -0.5,-0.6 -0.9,-0.8 -0.8,-0.2 -1.4,0.1 -2,0.5 -0.5,0.5 -0.9,1.2 -0.6,2 0.3,0.5 0,1.2 0.2,1.7 l -0.1,0.2 c -0.6,-0.6 -1.3,-1.2 -1.2,-2.3 m 2.1,1.3 c 0.7,0.5 1.6,0.3 2.4,0.4 0.1,0.5 0.1,1.1 -0.2,1.5 -0.8,-0.2 -1.8,-0.1 -2.2,-0.8 0.1,-0.3 -0.1,-0.7 0,-1.1 m -0.1,-1.5 c 0.1,-0.4 0,-0.9 0.5,-1 0.3,-0.1 0.8,-0.1 0.9,0.3 0,0.5 -0.1,1.1 -0.2,1.6 -0.7,0 -1,-0.4 -1.2,-0.9 m 21.1,14.6 c -0.2,-1.6 0.4,-2.9 1.4,-4.1 0.6,-0.1 1.4,-0.3 1.9,0.1 -1.2,0.3 -2.7,0.6 -2.9,2.1 0,0.6 -0.1,0.9 0.1,1.4 0.5,0.9 1.6,0.5 2.3,1.2 0,0.2 -0.2,0.5 -0.4,0.5 -0.7,-0.5 -1.7,-0.6 -2.4,-1.2 m -1.6,3.1 c 1.1,-0.5 2.2,-1.4 3.4,-1 -0.8,0.7 -2.2,0.9 -3.4,1 m 4.3,0.5 c -0.6,1.5 -1.4,2.9 -2.2,4.3 -0.1,0.2 -0.5,0.3 -0.7,0.3 0,-0.6 0.6,-1.1 0.9,-1.7 0.9,-1.2 1.2,-2.5 2.3,-3.7 0.2,0.2 -0.3,0.4 -0.3,0.8 m 1.1,-2.7 v 0.2 h -0.1 l 0.1,-0.2 v 0 c 0,0 -0.1,0 0,0 z m -0.4,-1.2 c -0.8,-0.1 -1.5,-0.3 -2.2,-0.5 -0.5,-0.5 0,-1 0,-1.5 0.6,-1 2.4,-1.5 3.3,-0.6 -0.1,1 -0.5,1.9 -1.1,2.6 m 1,0 c 0.1,-0.6 0.4,-1.4 0.7,-1.9 0,0.6 -0.3,1.4 -0.7,1.9 m 0.5,-3.7 c -0.6,-0.1 -0.9,-0.8 -1.5,-0.8 0.5,-0.2 1.1,-0.1 1.7,0 0.2,0.3 -0.2,0.5 -0.2,0.8 m 0.5,1.4 v 0 -0.5 0 z m 0.1,2.1 c 0,-0.2 0.1,-0.4 0.1,-0.6 0.2,-0.2 0.4,0.2 0.5,0.3 -0.1,0.2 -0.4,0.3 -0.6,0.3 m 0.6,-2.8 c 0.2,-0.6 0.3,-1.2 0.7,-1.7 0.4,0 0.9,0 1.2,0.2 0.1,0.9 1.2,2.1 0,2.9 -0.4,0.2 -1,0.6 -1.4,0.2 -0.6,-0.6 -0.7,-1 -0.5,-1.6 m 3.3,-1.3 c -0.1,-0.4 0.4,-0.1 0.6,-0.3 l 1.4,0.1 c -0.7,-0.1 -1.6,1.6 -2,0.2 m 2.3,0.6 c -0.5,0.2 -0.9,0.8 -1.5,1 0.3,-0.6 0.9,-1.1 1.5,-1 m -2,2.8 v 0 0.1 0 z m 0.2,2.8 c 0,0.1 0,0.2 -0.1,0.3 l -1,-0.8 c 0.4,-0.1 0.8,0.1 1.1,0.5 m -1.2,-1.5 c 0.1,-0.1 0.3,-0.1 0.4,0 z m -0.7,-0.6 c 0.2,-0.3 0.4,-0.7 0.7,-0.7 0,0 0,0.1 0.1,0.1 -0.2,0.2 -0.5,0.5 -0.8,0.6 m -1,-0.1 h -0.2 l 0.3,-0.3 c 0.1,0.1 -0.1,0.2 -0.1,0.3 m 0.1,1.7 c 0.6,-0.6 1.1,0.4 1.4,0.9 0.7,1 2.4,1.9 1.8,3.3 -0.9,0.8 -2.2,0 -3.2,0.6 -0.5,0 -1.4,0.1 -1.6,-0.4 0.5,-1.5 0.9,-3.1 1.6,-4.4 m -1.2,0.9 0.2,-0.4 c -0.4,1.1 -0.9,2.2 -1.5,3.3 -0.3,-1.1 0.9,-2 1.3,-2.9 m 1.9,5.4 c -0.9,0 -2.2,0.5 -3,-0.2 0,-0.4 -0.4,-0.5 -0.3,-0.9 0.7,-0.3 1.4,0.6 2,0 1,0 2.1,-0.1 3.2,0.1 0.5,0.1 1.3,-0.8 1.3,0.1 -0.3,1.5 -2.1,0.4 -3.2,0.9 m 2.7,-6.6 v 0 l -0.1,-0.1 h 0.1 z m 0.2,2.9 c 0,0.5 0.5,0.6 0.2,1 0,-0.2 -0.3,-0.6 -0.2,-1 m 1.3,2.7 -0.2,0.1 c -0.2,-0.2 -0.1,-0.7 -0.1,-1 0.2,0.3 0.5,0.6 0.3,0.9 m 2.2,1.1 c 0,0.1 -0.3,0.1 -0.4,0 -1.4,-1.7 -2,-3.5 -2.8,-5.4 h 0.2 c 1.1,1.7 2,3.7 3,5.4 m 1.7,-4.2 c -0.1,0 -0.1,0.1 -0.1,0.2 -1.3,0 -2.2,-0.7 -3.2,-1.4 v -0.2 c 1.2,0.1 2.2,0.8 3.3,1.4 m -1.2,-6 c 0.5,0.1 0.6,0.7 0.6,1.2 0,1 -0.6,1.9 -1.5,2.2 -0.5,0.3 -1.3,0.4 -1.8,0.2 1.1,0 2.3,-0.5 2.7,-1.5 z m -1,-0.2 c 0.2,0.6 0.6,1.2 0.4,2 -0.4,0.9 -1.4,0.9 -2.2,1 -0.4,0 -0.7,-0.1 -1,-0.3 0,-0.2 0,-0.3 -0.2,-0.5 0.1,-0.6 -1,-1.2 -0.2,-1.7 0.8,-0.6 2.5,-2.1 3.2,-0.5 M 188.8,326 c 0.7,-0.4 1.9,-0.3 2.6,0.1 0.6,0.1 1.3,0.4 1.5,1 0.7,0.6 0.5,1.8 0.4,2.6 -0.4,0.8 -1,1.4 -1.9,1.5 0,-1.1 1,-1.9 0.7,-3.1 -0.6,-0.9 -1.8,-1.1 -2.8,-0.9 -0.4,0.3 -0.2,0.7 -0.4,1.1 l -0.2,1.5 c -0.9,0 -0.9,-0.8 -1.2,-1.5 -0.1,-0.9 0.3,-1.8 1.3,-2.3 m 0.8,4.1 c 0.5,-0.5 -0.1,-3.4 1.3,-1.5 0,0.4 0,0.9 -0.3,1.2 -0.3,0.2 -0.7,0.6 -1,0.3 m 0.5,1.2 c 0,0.7 -0.6,0.5 -1,0.8 H 188 c -0.2,-0.4 -0.1,-0.9 -0.1,-1.3 0.7,0.1 1.5,0.1 2.2,0.5 m -34.8,-1.5 c 4.1,0 8.2,-0.3 12.1,0.4 1.3,0 2.3,0.4 3.6,0.5 2.5,0.3 4.9,1 7.4,1.2 0.4,0.1 0.9,0.1 1.4,0.2 4.1,0.6 8.6,1.8 12.5,0 0,1.6 -0.7,3.1 -0.9,4.7 -0.4,0.5 0,1.2 -0.5,1.6 0,0.8 -0.7,1.2 -1.3,1.5 -5.4,1.2 -10.6,-0.6 -15.8,-1.5 -7.3,-1.6 -15.7,-2 -23.1,-0.4 -3.5,0.6 -6.8,1.5 -10.2,2.4 -2.1,0.3 -4.3,0.6 -6.3,0 -1.6,-0.8 -0.9,-2.9 -1.4,-4.3 0.1,-1.1 -0.3,-2 -0.4,-3.1 -0.1,-0.4 -0.2,-0.8 -0.2,-1.2 0.7,0.1 1.4,0.6 2.1,0.8 3.8,0.7 7.2,-0.5 10.7,-1.1 3.3,-0.8 6.8,-1.4 10.3,-1.7"
   id="path408"
   inkscape:connector-curvature="0"
   style="fill:#231f20" />
		
	</g>
	
	
	
	
	
	
	
	
	
	
	
	
</g>
</svg>